<?xml version="1.0" encoding="utf-8"?>
<!-- Generator: Adobe Illustrator 17.0.0, SVG Export Plug-In . SVG Version: 6.00 Build 0)  -->
<!DOCTYPE svg PUBLIC "-//W3C//DTD SVG 1.1//EN" "http://www.w3.org/Graphics/SVG/1.1/DTD/svg11.dtd">
<svg version="1.1" id="Layer_1" xmlns="http://www.w3.org/2000/svg" xmlns:xlink="http://www.w3.org/1999/xlink" x="0px" y="0px"
	 width="244.667px" height="68.333px" viewBox="0 0 244.667 68.333" enable-background="new 0 0 244.667 68.333"
	 xml:space="preserve">
<g>
	<g>
		<g>
			<path fill="#513628" d="M132.161,21.697c0,0-3.499-0.006-3.866-0.006c-0.368,0-0.676,0.221-0.773,0.432
				c-0.241,0.53-0.784,2.572-0.784,2.572l-4.496,16.612c0,0-0.034,0.032-0.068-0.006c-0.097-0.108-4.108-16.024-4.264-16.602
				c-0.285-1.059-0.641-2.43-0.935-2.739c-0.303-0.322-0.922-0.262-0.922-0.262h-5.778c0,0,0.957,1.281,1.455,3.001
				c0.499,1.721,5.258,17.924,5.452,18.492c0.188,0.554,0.682,1.604,1.132,2.13c0.5,0.588,1.257,0.877,2.007,0.877h4.013
				c0,0,5.767-19.471,6.362-21.399C131.292,22.869,132.161,21.697,132.161,21.697"/>
			<path fill="#513628" d="M104.422,22.435c-0.103-0.32-0.207-0.499-0.303-0.589c-0.176-0.164-0.653-0.155-0.653-0.155H97.89
				c0,0-0.09,1.792-0.409,2.936c-0.195,0.7-5.524,17.793-5.776,18.564c-0.39,1.197-1.64,3.003-1.64,3.003h3.379
				c0.366,0,0.675-0.22,0.772-0.431c0.239-0.531,0.787-2.572,0.787-2.572l1.123-3.751l7.564,1.293
				c0.35,1.378,0.589,2.324,0.627,2.458c0.286,1.061,0.641,2.43,0.934,2.74c0.303,0.322,0.922,0.263,0.922,0.263h5.779
				c0,0-0.914-1.215-1.456-3.003C110.102,41.901,104.445,22.516,104.422,22.435 M96.927,36.778l3.058-10.194
				c0,0,0.034-0.032,0.067,0.006c0.063,0.07,1.736,6.646,2.967,11.504L96.927,36.778z"/>
			<path fill="#513628" d="M150.334,43.191c-0.392-1.29-6.048-20.675-6.074-20.756c-0.103-0.32-0.207-0.499-0.303-0.589
				c-0.176-0.164-0.653-0.155-0.653-0.155h-5.573c0,0-0.089,1.792-0.41,2.936c-0.194,0.7-5.524,17.793-5.776,18.564
				c-0.391,1.197-1.639,3.003-1.639,3.003h3.378c0.366,0,0.676-0.22,0.771-0.431c0.241-0.531,0.787-2.572,0.787-2.572l1.125-3.751
				l7.564,1.293c0.348,1.378,0.589,2.324,0.624,2.458c0.287,1.061,0.642,2.43,0.934,2.74c0.303,0.322,0.923,0.263,0.923,0.263h5.778
				C151.789,46.194,150.877,44.979,150.334,43.191 M136.763,36.778l3.06-10.194c0,0,0.034-0.032,0.068,0.006
				c0.062,0.07,1.736,6.646,2.967,11.504L136.763,36.778z"/>
			<path fill="#513628" d="M87.236,21.691h-5.332l0.387,4.551l0.004,13.722c0,2.739-1.37,3.518-3.299,3.518
				c-1.403,0-3.036-0.535-5.02-1.002c0,0-0.994,2.194-0.171,2.621c1.34,0.697,4.47,1.461,6.809,1.461c3.273,0,7.08-0.968,7.08-4.453
				c0,0-0.003-19.666-0.003-19.893C87.691,21.922,87.62,21.691,87.236,21.691"/>
		</g>
	</g>
	<g>
		<path fill="#B3282D" d="M24.346,47.271c0-0.042,0.791-0.389,1.833-0.821C25.137,46.882,24.346,47.229,24.346,47.271
			c0.001,0.081,1.125,2.64,3.959,4.355C25.47,49.911,24.347,47.352,24.346,47.271"/>
		<path fill="#B3282D" d="M29.045,52.03c1.326,0.658,2.958,1.123,4.968,1.123c2.846,0,5.059-1.095,6.648-2.34
			c-1.59,1.245-3.803,2.34-6.648,2.34C32.003,53.152,30.371,52.688,29.045,52.03"/>
		<path fill="#B3282D" d="M45.329,54.005c-0.741,0.43-1.515,0.804-2.306,1.15C43.814,54.81,44.588,54.436,45.329,54.005z"/>
		<path fill="#B3282D" d="M47.551,53.561c-0.181-0.192-0.347-0.411-0.496-0.66C47.204,53.15,47.371,53.368,47.551,53.561"/>
		<path fill="#B3282D" d="M29.968,56.638c0.289,0.054,0.587,0.08,0.88,0.124C30.555,56.718,30.257,56.692,29.968,56.638l-0.04-0.008
			L29.968,56.638z"/>
		<path fill="#B3282D" d="M35.267,60.237c-0.028-0.321-0.035-0.641-0.01-0.953C35.232,59.596,35.239,59.916,35.267,60.237"/>
		<path fill="#B3282D" d="M36.722,56.871L36.722,56.871c-0.857,0.101-1.725,0.152-2.609,0.152c-0.337,0-0.667-0.032-1.001-0.046
			c0.334,0.015,0.663,0.046,1.001,0.046C34.997,57.023,35.865,56.972,36.722,56.871"/>
		<path fill="#B3282D" d="M52.214,47.818c-0.721,0.979-1.518,1.897-2.381,2.745C50.696,49.716,51.493,48.797,52.214,47.818z"/>
		<path fill="#B3282D" d="M26.945,49.07c0.061,0.089,0.136,0.166,0.201,0.251C27.081,49.236,27.006,49.159,26.945,49.07z"/>
		<path fill="#B3282D" d="M41.304,50.272c1.613-1.45,2.412-2.92,2.412-3.001c0-0.029-0.231-0.142-0.608-0.308
			c0.377,0.166,0.608,0.279,0.608,0.308C43.716,47.352,42.917,48.822,41.304,50.272"/>
		<path fill="#B3282D" d="M48.488,51.784c-0.464,0.389-0.944,0.759-1.439,1.11c0.001,0.001,0.002,0.002,0.002,0.002
			s-0.001-0.001-0.002-0.002C47.544,52.543,48.024,52.173,48.488,51.784"/>
		<path fill="#B3282D" d="M27.376,45.962c0.291-0.117,0.584-0.234,0.875-0.349C27.96,45.728,27.667,45.845,27.376,45.962"/>
		<path fill="#B3282D" d="M38.924,45.282c0.271,0.103,0.549,0.21,0.837,0.321C39.473,45.491,39.195,45.385,38.924,45.282"/>
		<path fill="#B3282D" d="M29.944,28.755L29.944,28.755L29.944,28.755z"/>
		<path fill="#B3282D" d="M55.779,55.801c0.442,0.362,0.726,0.907,0.781,1.744C56.505,56.708,56.221,56.162,55.779,55.801"/>
		<path fill="#B3282D" d="M39.297,49.487c-1.702,0.298-3.945,0.569-5.265,0.569c-1.613,0-4.541-0.404-6.217-0.767
			c1.677,0.364,4.604,0.767,6.217,0.767C35.352,50.056,37.594,49.785,39.297,49.487"/>
		<path fill="#B3282D" d="M52.142,50.175c0.136,0.338,0.334,0.646,0.573,0.928C52.476,50.821,52.279,50.515,52.142,50.175"/>
		<path fill="#B3282D" d="M37.376,44.715c0.134,0.046,0.285,0.1,0.454,0.161C37.661,44.814,37.511,44.761,37.376,44.715"/>
		<path fill="#B3282D" d="M11.963,38.877c0.019-0.002,0.038-0.004,0.056-0.007C12.001,38.873,11.982,38.875,11.963,38.877
			L11.954,38.8L11.963,38.877z"/>
		<path fill="#B3282D" d="M20.028,52.102c-0.34-0.098-0.659-0.148-0.955-0.146C19.369,51.954,19.688,52.004,20.028,52.102"/>
		<path fill="#B3282D" d="M41.916,47.785c-0.11,0.037-0.224,0.076-0.343,0.118C41.692,47.862,41.806,47.822,41.916,47.785"/>
		<path fill="#B3282D" d="M34.26,46.504c-0.139,0.054-0.228,0.091-0.228,0.091S34.121,46.558,34.26,46.504"/>
		<path fill="#B3282D" d="M10.601,56.5l0.096,0.072L10.601,56.5z"/>
		<path fill="#B3282D" d="M34.115,66.216c0.447-0.229,0.964-0.565,1.299-1.188C35.079,65.65,34.562,65.986,34.115,66.216"/>
		<path fill="#B3282D" d="M20.174,52.137c-0.228-0.182-0.441-0.38-0.662-0.57C19.732,51.757,19.945,51.956,20.174,52.137z"/>
		<path fill="#B3282D" d="M16.004,27.874c0.342-0.32,3.134-2.66,6.72-2.66c1.384,0,2.608,0.378,3.633,0.88
			c-1.025-0.502-2.249-0.88-3.633-0.88C19.137,25.214,16.346,27.555,16.004,27.874"/>
		<path fill="#B3282D" d="M9.545,40.114c-2.173,2.322-2.312,6.926-5.654,5.789l-0.039-0.109l0.039,0.109
			c0.064,0.048,0.136,0.112,0.216,0.185c-0.079-0.073-0.151-0.136-0.216-0.185C7.233,47.04,7.373,42.435,9.545,40.114"/>
		<path fill="#B3282D" d="M15.445,47.005L15.445,47.005c0.817,1.216,1.759,2.337,2.786,3.37
			C17.204,49.342,16.262,48.222,15.445,47.005"/>
		<path fill="#B3282D" d="M25.813,47.718c0,0,0.351-0.106,0.891-0.266C26.164,47.611,25.813,47.718,25.813,47.718
			c2.892,0.941,5.066,1.352,8.22,1.352c4.13,0,6.052-0.644,7.347-1.098c-1.295,0.454-3.217,1.098-7.347,1.098
			C30.878,49.07,28.705,48.659,25.813,47.718"/>
		<path fill="#B3282D" d="M24.843,60.089c0.353-1.712,0.838-3.645,3.011-3.958C25.682,56.444,25.196,58.376,24.843,60.089"/>
		<path fill="#B3282D" d="M12.979,54.568c-0.182,0.796-0.543,1.418-1.264,1.748C12.436,55.986,12.798,55.363,12.979,54.568"/>
		<path fill="#B3282D" d="M21.068,63.825l-0.015-0.009L21.068,63.825c4.012-1.977-2.118-6.831,0.653-10.558
			C18.951,56.993,25.08,61.848,21.068,63.825"/>
		<path fill="#B3282D" d="M34.067,51.972c-2.121,0-3.869-0.389-5.196-1.146C30.198,51.583,31.945,51.972,34.067,51.972
			c3.071,0,5.863-1.308,7.141-2.902h-0.001C39.93,50.663,37.138,51.972,34.067,51.972"/>
		<path fill="#B3282D" d="M35.551,58.149c-0.101,0.217-0.181,0.441-0.228,0.674C35.37,58.59,35.45,58.366,35.551,58.149"/>
		<path fill="#B3282D" d="M35.879,46.014L35.879,46.014c0.224,0,0.907,0.17,1.738,0.404C36.786,46.185,36.104,46.014,35.879,46.014"
			/>
		<path fill="#B3282D" d="M14.334,56.228c-1.353,1.196-2.587,0.717-3.309,0.453C11.747,56.945,12.982,57.424,14.334,56.228
			c1.235-1.092,2.254-4.229,4.699-4.275C16.588,51.998,15.569,55.136,14.334,56.228"/>
		<path fill="#B3282D" d="M32.182,46.014L32.182,46.014c0.106,0,0.394,0.081,0.71,0.184C32.576,46.096,32.288,46.014,32.182,46.014"
			/>
		<path fill="#B3282D" d="M42.143,15.873c-0.759,1.685-2.153,3.682-3.494,5.409C39.99,19.555,41.384,17.558,42.143,15.873
			c0,0,0.477-1.056-0.354-1.543C42.62,14.817,42.143,15.873,42.143,15.873"/>
		<path fill="#B3282D" d="M38.667,28.293c-0.015,0.014-0.03,0.026-0.044,0.039C38.637,28.319,38.651,28.306,38.667,28.293"/>
		<path fill="#B3282D" d="M33.06,25.819c0.001,0.137-0.026,0.243-0.026,0.243c-0.075,0.565-0.522,2.59-1.001,4.95
			c0.479-2.359,0.925-4.385,1.001-4.95C33.034,26.062,33.061,25.957,33.06,25.819"/>
		<path fill="#B3282D" d="M6.677,47.144c-0.219,0.027-0.424,0.028-0.614,0.009C6.254,47.172,6.458,47.171,6.677,47.144"/>
		<path fill="#B3282D" d="M41.677,14.252l0.009-0.001c-1.179-0.44-2.406-0.779-3.671-1.009c1.266,0.23,2.493,0.569,3.671,1.009
			L41.677,14.252z"/>
		<path fill="#B3282D" d="M39.302,30.564c0.169,0.127,0.356,0.259,0.558,0.396C39.658,30.824,39.472,30.691,39.302,30.564"/>
		<path fill="#B3282D" d="M30.041,22.004c1.5,1.873,2.801,3.287,2.878,3.379c0.056,0.064,0.091,0.139,0.112,0.215
			c-0.021-0.075-0.056-0.151-0.112-0.215C32.842,25.292,31.54,23.877,30.041,22.004"/>
		<path fill="#B3282D" d="M53.475,29.963c0.278-0.21,0.55-0.423,0.814-0.646C54.025,29.539,53.753,29.753,53.475,29.963"/>
		<path fill="#B3282D" d="M51.298,31.347c0.405-0.214,0.799-0.443,1.181-0.689C52.097,30.904,51.703,31.133,51.298,31.347"/>
		<path fill="#B3282D" d="M51.232,27.187c-0.284-0.196-0.633-0.416-1.028-0.634C50.599,26.772,50.948,26.991,51.232,27.187"/>
		<path fill="#B3282D" d="M31.792,32.214c0.08-0.406,0.16-0.809,0.241-1.202C31.953,31.404,31.873,31.808,31.792,32.214"/>
		<path fill="#B3282D" d="M15.545,28.06c-0.045-0.002-0.094-0.024-0.141-0.037C15.451,28.036,15.5,28.059,15.545,28.06"/>
		<path fill="#B3282D" d="M13.248,28.816L13.248,28.816c0.86,0.785,1.81,1.505,2.836,2.12C15.058,30.32,14.108,29.6,13.248,28.816"
			/>
		<path fill="#B3282D" d="M29.497,28.331c-0.478-0.422-1.556-1.451-3.094-2.214C27.941,26.88,29.019,27.909,29.497,28.331"/>
		<path fill="#B3282D" d="M37.158,41.612c0.23-0.058,0.451-0.115,0.647-0.171C37.608,41.497,37.388,41.554,37.158,41.612"/>
		<path fill="#B3282D" d="M26.262,14.356c2.029-0.788,4.211-1.259,6.482-1.401C30.472,13.097,28.289,13.568,26.262,14.356
			c-0.377,0.25-0.449,0.629-0.425,0.946C25.813,14.986,25.885,14.607,26.262,14.356"/>
		<path fill="#B3282D" d="M51.802,27.609c-0.046-0.037-0.099-0.077-0.153-0.119C51.703,27.532,51.756,27.573,51.802,27.609"/>
		<path fill="#B3282D" d="M54.183,44.608c0.332-0.651,0.626-1.323,0.895-2.007C54.809,43.287,54.515,43.958,54.183,44.608"/>
		<path fill="#B3282D" d="M37.01,30.503c-0.088-0.364-0.173-0.714-0.255-1.053C36.837,29.788,36.922,30.139,37.01,30.503"/>
		<path fill="#B3282D" d="M52.575,28.06c-0.111,0.005-0.207-0.026-0.294-0.072C52.368,28.034,52.463,28.065,52.575,28.06"/>
		<path fill="#B3282D" d="M31.159,41.661c-0.843-0.205-1.578-0.417-1.719-0.558C29.581,41.244,30.315,41.456,31.159,41.661"/>
		<path fill="#B3282D" d="M54.231,47.046c2.795,0.998,5.996-1.754,8.116-1.204C60.226,45.292,57.026,48.043,54.231,47.046"/>
		<path fill="#B3282D" d="M37.01,30.503c1.024,4.233,2.348,9.921,1.669,10.6c-0.09,0.091-0.424,0.21-0.874,0.338
			c0.451-0.129,0.784-0.248,0.874-0.338C39.357,40.424,38.034,34.736,37.01,30.503"/>
		<path fill="#B3282D" d="M63.178,46.29c-0.206-0.188-0.43-0.313-0.668-0.396C62.748,45.977,62.972,46.102,63.178,46.29"/>
		<path fill="#B3282D" d="M14.8,27.571c0.073,0.088,0.139,0.162,0.193,0.214c0.092,0.094,0.187,0.161,0.28,0.205
			c-0.094-0.044-0.189-0.111-0.28-0.205C14.939,27.733,14.873,27.659,14.8,27.571"/>
		<path fill="#B3282D" d="M54.956,28.739L54.956,28.739c0.23,0.838,0.405,1.698,0.532,2.574
			C55.362,30.437,55.187,29.577,54.956,28.739"/>
		<path fill="#B3282D" d="M58.5,42.991c0.198,0.069,0.401,0.13,0.606,0.183C58.901,43.12,58.698,43.059,58.5,42.991"/>
		<path fill="#B3282D" d="M31.57,25.327l-8.31-9.528c-0.379,0.22-0.743,0.464-1.107,0.706c0.364-0.242,0.727-0.485,1.107-0.706
			L31.57,25.327z"/>
		<path fill="#B3282D" d="M63.662,45.789c-0.121-0.491-0.37-1.013-0.931-1.455C63.291,44.776,63.541,45.298,63.662,45.789"/>
		<path fill="#B3282D" d="M38.235,29.637c0.048,0.074,0.386,0.404,0.934,0.826C38.62,30.042,38.283,29.711,38.235,29.637
			c-0.32-0.475-0.301-0.73,0.267-1.201C37.934,28.907,37.915,29.163,38.235,29.637"/>
		<path fill="#B3282D" d="M34.111,12.891L34.111,12.891c0.666,0,1.326,0.03,1.976,0.089C35.437,12.921,34.778,12.891,34.111,12.891"
			/>
		<path fill="#B3282D" d="M38.649,21.282c-0.383,0.493-0.762,0.965-1.121,1.401C37.887,22.247,38.266,21.775,38.649,21.282"/>
		<path fill="#B3282D" d="M40.228,27.015c1.228-0.873,3.001-1.801,5.167-1.801c1.841,0,3.473,0.618,4.673,1.262
			c-1.2-0.644-2.832-1.262-4.673-1.262C43.229,25.214,41.456,26.142,40.228,27.015"/>
		<path fill="#B3282D" d="M58.214,42.884c-1.254-0.502-2.245-1.413-2.131-3.45C55.969,41.472,56.96,42.383,58.214,42.884"/>
		<path fill="#B3282D" d="M53.663,27.14c0.171-0.219,0.354-0.46,0.529-0.686c-0.453-1.131-0.997-2.214-1.626-3.24
			c0.629,1.026,1.174,2.11,1.626,3.24C54.017,26.68,53.834,26.921,53.663,27.14"/>
		<path fill="#B3282D" d="M53.151,46.44c0.335-0.531,0.649-1.076,0.941-1.635C53.8,45.364,53.485,45.909,53.151,46.44l-0.079,0.128
			L53.151,46.44z"/>
		<path fill="#B3282D" d="M50.436,20.313c-1.575-1.807-3.447-3.351-5.541-4.555C46.989,16.962,48.861,18.506,50.436,20.313"/>
		<path fill="#B3282D" d="M23.484,31.808c0.841-0.187,1.472-0.991,1.472-1.957c0-0.396-0.107-0.765-0.291-1.074
			c0.184,0.309,0.291,0.678,0.291,1.074C24.956,30.817,24.326,31.622,23.484,31.808"/>
		<path fill="#B3282D" d="M46.069,31.481c0.472-0.362,0.781-0.955,0.781-1.629c0-0.333-0.081-0.642-0.214-0.917
			c0.132,0.275,0.214,0.583,0.214,0.917C46.85,30.525,46.541,31.119,46.069,31.481"/>
		<path fill="#B3282D" d="M46.122,8.332c0.075,0.233,0.159,0.47,0.245,0.71C46.28,8.802,46.197,8.565,46.122,8.332"/>
		<path fill="#B3282D" d="M46.668,9.899c0.101,0.293,0.196,0.588,0.28,0.886C46.864,10.487,46.769,10.192,46.668,9.899"/>
		<path fill="#B3282D" d="M46.245,5.104c0.014-0.016,0.025-0.034,0.04-0.05C46.27,5.07,46.26,5.087,46.245,5.104"/>
		<path fill="#B3282D" d="M43.929,6.137c-0.398,0.818-0.498,2.189-0.886,3.417C43.431,8.326,43.53,6.955,43.929,6.137z"/>
		<path fill="#B3282D" d="M42.655,28.642c-0.388,0.072-0.733,0.153-1.057,0.236C41.922,28.794,42.268,28.713,42.655,28.642z"/>
		<path fill="#B3282D" d="M10.029,45.41c-0.147,0.086-0.291,0.173-0.433,0.264C9.738,45.583,9.882,45.496,10.029,45.41"/>
		<path fill="#B3282D" d="M39.96,29.405L39.96,29.405c0.015-0.006,0.037-0.014,0.053-0.02C39.997,29.391,39.975,29.399,39.96,29.405
			"/>
		<path fill="#B3282D" d="M45.789,6.996c0.029,0.211,0.074,0.428,0.131,0.652C45.863,7.425,45.818,7.207,45.789,6.996"/>
		<path fill="#B3282D" d="M43.271,29.204c-0.065,0.204-0.106,0.42-0.106,0.647c0,0.552,0.206,1.051,0.54,1.413
			c-0.334-0.362-0.54-0.86-0.54-1.413C43.164,29.623,43.206,29.409,43.271,29.204"/>
		<path fill="#B3282D" d="M31.557,11.349L31.557,11.349c0.164-0.103,0.311-0.213,0.443-0.329
			C31.868,11.136,31.721,11.246,31.557,11.349"/>
		<path fill="#B3282D" d="M47.248,12.407c-0.019-0.351-0.076-0.704-0.155-1.056C47.172,11.703,47.229,12.056,47.248,12.407"/>
		<path fill="#B3282D" d="M47.16,4.426L47.16,4.426l0.119,0.063L47.16,4.426c-0.605,0.092-2.138-0.142-3.087,1.477
			C45.021,4.285,46.554,4.517,47.16,4.426"/>
		<path fill="#B3282D" d="M34.677,4.85c0.122,0.183,0.259,0.366,0.407,0.549C34.936,5.215,34.799,5.032,34.677,4.85"/>
		<path fill="#B3282D" d="M34.557,2.004c-0.026,0.037-0.044,0.074-0.069,0.11C34.512,2.078,34.531,2.041,34.557,2.004"/>
		<path fill="#B3282D" d="M42.391,10.919c-0.427,0.597-1.037,1.046-1.964,1.193C41.353,11.965,41.964,11.515,42.391,10.919"/>
		<path fill="#B3282D" d="M46.157,28.352c-0.067-0.002-0.133-0.004-0.2-0.004c-0.611,0-1.168,0.036-1.701,0.084
			c0.533-0.048,1.09-0.084,1.701-0.084C46.024,28.348,46.09,28.35,46.157,28.352"/>
		<path fill="#B3282D" d="M45.876,31.603c-0.051,0.03-0.099,0.065-0.153,0.089C45.778,31.668,45.825,31.633,45.876,31.603"/>
		<path fill="#B3282D" d="M60.315,25.471c-0.845,1.776-1.819,3.655-4.05,3.903c-0.017,0.003-0.036,0.006-0.052,0.007
			c0.016-0.001,0.035-0.004,0.052-0.007C58.496,29.126,59.47,27.247,60.315,25.471"/>
		<path fill="#B3282D" d="M61.341,23.5c0.247-0.378,0.515-0.699,0.83-0.931C61.856,22.801,61.587,23.122,61.341,23.5"/>
		<path fill="#B3282D" d="M49.859,30.635c-0.739,0.379-1.662,0.756-2.659,1.006C48.197,31.391,49.121,31.014,49.859,30.635"/>
		<path fill="#B3282D" d="M62.677,22.293c0.182-0.067,0.377-0.107,0.59-0.118C63.054,22.185,62.859,22.226,62.677,22.293"/>
		<path fill="#B3282D" d="M61.341,23.5c-0.369,0.567-0.687,1.261-1.026,1.972C60.653,24.761,60.971,24.066,61.341,23.5"/>
		<path fill="#B3282D" d="M53.637,22.592c0.298,0.519,0.577,1.052,0.835,1.596C54.214,23.644,53.936,23.111,53.637,22.592z"/>
		<path fill="#B3282D" d="M63.845,34.423c-0.375,0.192-0.747,0.462-1.124,0.774C63.098,34.885,63.47,34.615,63.845,34.423"/>
		<path fill="#B3282D" d="M62.166,21.099c0.19,0.019,0.367,0.059,0.531,0.113C62.533,21.158,62.356,21.118,62.166,21.099"/>
		<path fill="#B3282D" d="M47.595,28.474L47.595,28.474c0.232,0.392,0.365,0.845,0.365,1.328c0,0.568-0.19,1.088-0.502,1.522
			c0.312-0.434,0.502-0.954,0.502-1.521C47.96,29.319,47.827,28.865,47.595,28.474"/>
		<path fill="#B3282D" d="M47.552,26.594c0.142,0.046,0.278,0.098,0.413,0.151C47.83,26.69,47.694,26.64,47.552,26.594"/>
		<path fill="#B3282D" d="M51.407,29.625L51.407,29.625c-0.255,0.251-0.809,0.631-1.548,1.009
			C50.597,30.257,51.152,29.877,51.407,29.625"/>
		<path fill="#B3282D" d="M48.107,16.131L48.107,16.131c1.287,1.033,2.455,2.209,3.493,3.499
			C50.562,18.34,49.395,17.163,48.107,16.131"/>
		<path fill="#B3282D" d="M57.533,11.68L57.533,11.68c-4.499,0.293-0.599,7.229-4.738,9.559v0.001
			C56.934,18.909,53.034,11.973,57.533,11.68"/>
		<path fill="#B3282D" d="M42.897,31.34c-0.319-0.438-0.515-0.964-0.515-1.538c0-0.163,0.027-0.32,0.056-0.475
			c-0.029,0.155-0.057,0.311-0.057,0.475C42.38,30.377,42.578,30.902,42.897,31.34"/>
		<path fill="#B3282D" d="M42.551,10.672c0.126-0.211,0.239-0.431,0.332-0.665C42.79,10.24,42.677,10.461,42.551,10.672"/>
		<path fill="#B3282D" d="M43.051,31.548L43.051,31.548c-1.061-0.394-2.001-1.029-2.606-1.602
			C41.05,30.52,41.991,31.154,43.051,31.548"/>
		<path fill="#B3282D" d="M57.084,11.529c-0.486-0.177-1.166-0.388-1.945-0.188C55.917,11.141,56.597,11.352,57.084,11.529"/>
		<path fill="#B3282D" d="M51.135,29.481c0.015,0.007,0.024,0.014,0.038,0.02C51.16,29.494,51.15,29.488,51.135,29.481"/>
		<path fill="#B3282D" d="M45.756,6.383c-0.009,0.197,0.004,0.402,0.033,0.614C45.76,6.785,45.747,6.58,45.756,6.383"/>
		<path fill="#B3282D" d="M6.274,24.37c1.587,0.665,4.84,0.468,5.674,2.861C11.114,24.838,7.861,25.036,6.274,24.37"/>
		<path fill="#B3282D" d="M17.167,18.971c0.881-1.013,1.855-1.936,2.899-2.778C19.022,17.036,18.048,17.958,17.167,18.971"/>
		<path fill="#B3282D" d="M25.066,31.548c0.177-0.066,0.351-0.138,0.521-0.216C25.417,31.41,25.243,31.483,25.066,31.548z"/>
		<path fill="#B3282D" d="M14.042,13.061c0.94,0.152,2.05,0.14,3.143,0.245C16.092,13.201,14.982,13.212,14.042,13.061"/>
		<path fill="#B3282D" d="M26.321,28.824c-0.266-0.065-0.552-0.126-0.858-0.183c0.055,0.112,0.089,0.234,0.129,0.353
			c-0.04-0.119-0.073-0.241-0.129-0.353C25.769,28.699,26.055,28.759,26.321,28.824"/>
		<path fill="#B3282D" d="M15.065,21.803L15.065,21.803c-0.047-0.038-0.097-0.072-0.145-0.108
			C14.968,21.731,15.018,21.766,15.065,21.803"/>
		<path fill="#B3282D" d="M25.675,29.266c0.038,0.174,0.064,0.351,0.064,0.536c0,0.5-0.142,0.967-0.39,1.368
			c0.248-0.401,0.39-0.868,0.39-1.368C25.739,29.617,25.712,29.44,25.675,29.266"/>
		<path fill="#B3282D" d="M12.448,12.45c-0.014-0.012-0.023-0.029-0.037-0.041C12.424,12.421,12.434,12.438,12.448,12.45"/>
		<path fill="#B3282D" d="M18.095,13.433c0.396,0.073,0.779,0.177,1.144,0.32C18.874,13.61,18.491,13.505,18.095,13.433"/>
		<path fill="#B3282D" d="M26.351,30.927c-0.243,0.144-0.495,0.282-0.764,0.405C25.856,31.209,26.108,31.071,26.351,30.927"/>
		<path fill="#B3282D" d="M17.861,28.222c0.394-0.259,0.849-0.457,1.322-0.628C18.71,27.764,18.256,27.963,17.861,28.222z"/>
		<path fill="#B3282D" d="M11.854,30.046c-0.008-0.002-0.015-0.004-0.021-0.007C11.838,30.042,11.846,30.044,11.854,30.046"/>
		<path fill="#B3282D" d="M14.627,45.696c-0.603-1.044-1.128-2.14-1.565-3.28C13.498,43.557,14.022,44.652,14.627,45.696z"/>
		<path fill="#B3282D" d="M27.948,28.393L27.948,28.393c-0.119-0.053-0.246-0.104-0.368-0.157
			C27.702,28.289,27.829,28.34,27.948,28.393"/>
		<path fill="#B3282D" d="M27.257,27.816c0.258,0.195,0.477,0.381,0.651,0.542C27.734,28.197,27.515,28.011,27.257,27.816"/>
		<polygon fill="#B3282D" points="11.806,37.695 11.806,37.695 11.596,37.768 		"/>
		<path fill="#B3282D" d="M4.501,35.77L4.501,35.77c-0.792-0.049-1.34-0.312-1.733-0.651C3.161,35.458,3.708,35.721,4.501,35.77"/>
		<path fill="#B3282D" d="M11.728,37.02c-0.119-0.953-0.196-1.919-0.196-2.905c0-0.798,0.051-1.582,0.13-2.358
			c-0.078,0.776-0.13,1.561-0.13,2.358C11.532,35.101,11.609,36.067,11.728,37.02"/>
		<path fill="#B3282D" d="M20.397,31.491c-0.794-0.239-1.53-0.545-2.136-0.856C18.867,30.946,19.603,31.252,20.397,31.491"/>
		<path fill="#B3282D" d="M16.985,29.481c-0.103,0.05-0.194,0.099-0.272,0.145c0.053,0.052,0.127,0.113,0.205,0.175
			c-0.078-0.062-0.152-0.123-0.205-0.175C16.79,29.579,16.881,29.531,16.985,29.481"/>
		<path fill="#B3282D" d="M34.445,1.874c-0.703,0.327-1.863,0.874-1.971,2.639c-0.008,0.113-0.007,0.233,0,0.357
			c-0.007-0.124-0.008-0.244,0-0.357C32.581,2.748,33.742,2.201,34.445,1.874"/>
		<path fill="#B3282D" d="M29.325,11.72L29.325,11.72c-1.139,0.25-2.245,0.587-3.313,1.004C27.08,12.307,28.186,11.97,29.325,11.72"
			/>
		<path fill="#B3282D" d="M34.677,4.85c-0.548-0.822-0.79-1.643-0.308-2.542C33.887,3.207,34.128,4.028,34.677,4.85"/>
		<path fill="#B3282D" d="M42.499,26.871c0.178-0.076,0.362-0.146,0.556-0.212C42.861,26.725,42.677,26.795,42.499,26.871"/>
		<polygon fill="#B3282D" points="29.325,11.715 29.325,11.715 29.56,11.668 		"/>
		<path fill="#B3282D" d="M40.173,28.393L40.173,28.393c0.323-0.302,0.805-0.701,1.435-1.075
			C40.979,27.692,40.496,28.092,40.173,28.393"/>
		<path fill="#B3282D" d="M37.075,7.695c0.128,0.162,0.248,0.328,0.363,0.496C37.323,8.023,37.203,7.858,37.075,7.695"/>
		<path fill="#B3282D" d="M37.604,8.445c0.086,0.136,0.166,0.276,0.24,0.416C37.771,8.721,37.69,8.581,37.604,8.445"/>
		<path fill="#B3282D" d="M35.805,6.232c0.254,0.282,0.516,0.569,0.773,0.863C36.322,6.801,36.06,6.515,35.805,6.232"/>
		<path fill="#B3282D" d="M22.165,28.349L22.165,28.349c0.835,0,1.601,0.054,2.292,0.138C23.766,28.403,23,28.349,22.165,28.349"/>
		<path fill="#B3282D" d="M21.262,7.395c-0.396-1.154-0.102-1.957,0.288-2.537C21.16,5.438,20.866,6.242,21.262,7.395
			c0.601,1.747,3.687,4.228,1.672,6.808C24.948,11.624,21.864,9.143,21.262,7.395"/>
		<path fill="#B3282D" d="M28.266,9.695c-1.57-1.596-4.364-2.124-5.549-3.43C23.903,7.571,26.696,8.099,28.266,9.695"/>
		<path fill="#B3282D" d="M20.525,28.474L20.525,28.474C20.379,28.721,20.289,29,20.23,29.29C20.289,29,20.379,28.721,20.525,28.474
			"/>
		<path fill="#B3282D" d="M28.115,29.388c0.014,0.006,0.033,0.012,0.045,0.017C28.148,29.399,28.129,29.393,28.115,29.388"/>
		<path fill="#B3282D" d="M21.864,4.443c0.02-0.023,0.04-0.049,0.059-0.071C21.904,4.393,21.885,4.42,21.864,4.443"/>
		<path fill="#B3282D" d="M15.786,28.023c-0.05,0.019-0.108,0.021-0.165,0.026C15.678,28.044,15.736,28.042,15.786,28.023"/>
		<path fill="#B3282D" d="M28.59,10.069c0.078,0.102,0.153,0.207,0.221,0.316C28.743,10.276,28.669,10.17,28.59,10.069"/>
		<path fill="#B3282D" d="M63.729,32.485c2.112,0.129,2.485,1.777,2.817,2.328l0.18-0.018c-0.356-2.956-2.948-4.151-5.501-3.855
			c-2.468,0.286-3.723-0.218-4.4-0.791l-0.393,0.437C57.809,34.608,61.727,32.362,63.729,32.485"/>
		<path fill="#B3282D" d="M56.083,39.434c-0.114,2.037,0.877,2.948,2.131,3.45c0.094,0.038,0.189,0.073,0.285,0.106
			c0.199,0.069,0.401,0.13,0.606,0.183c1.111,0.292,2.271,0.414,2.996,0.769c0.245,0.12,0.452,0.251,0.629,0.392
			c0.56,0.442,0.809,0.965,0.93,1.456c0.138,0.564,0.107,1.086,0.151,1.383l-0.071,0.13l-0.002,0.004
			c0.061,0.034,0.122,0.066,0.182,0.101c0.003,0.004,0.006,0.006,0.01,0.008c0.943-2.963-1.025-5.136-3.549-5.855
			c-2.343-0.67-3.319-1.592-3.739-2.372L56.083,39.434z"/>
		<path fill="#B3282D" d="M63.813,47.172c-0.044-0.297-0.013-0.818-0.151-1.383C63.8,46.354,63.768,46.875,63.813,47.172z"/>
		<path fill="#B3282D" d="M62.731,44.334c-0.178-0.14-0.384-0.273-0.628-0.393c-0.726-0.355-1.886-0.476-2.996-0.768
			c1.11,0.292,2.27,0.413,2.996,0.768C62.347,44.061,62.553,44.194,62.731,44.334"/>
		<path fill="#B3282D" d="M58.214,42.884c0.094,0.038,0.189,0.073,0.285,0.106C58.402,42.958,58.308,42.922,58.214,42.884"/>
		<path fill="#B3282D" d="M66.725,34.796l-0.18,0.018c-0.956-0.838-1.813-0.831-2.653-0.417c-0.015,0.008-0.031,0.018-0.046,0.026
			c-0.375,0.191-0.747,0.462-1.124,0.773c-0.157,0.13-0.314,0.266-0.473,0.407c-1.626,1.444-3.388,3.324-5.854,2.611l-0.043,0.147
			c4.537,2.873,6.797-3.893,10.383-3.372l0.012,0.003C66.742,34.927,66.736,34.859,66.725,34.796"/>
		<path fill="#B3282D" d="M63.892,34.397c-0.015,0.008-0.031,0.017-0.046,0.025C63.861,34.415,63.877,34.405,63.892,34.397"/>
		<path fill="#B3282D" d="M62.249,35.604c0.159-0.141,0.316-0.277,0.473-0.407C62.565,35.326,62.407,35.463,62.249,35.604"/>
		<path fill="#B3282D" d="M64.341,22.35c-0.401-0.136-0.756-0.19-1.074-0.175c-0.213,0.01-0.408,0.05-0.59,0.117
			c-0.182,0.068-0.35,0.161-0.507,0.277c-0.314,0.232-0.583,0.553-0.83,0.931c-0.369,0.567-0.687,1.26-1.026,1.971
			c-0.845,1.776-1.819,3.655-4.05,3.904l0.018,0.155c5.192,0.901,4.803-5.937,8.108-7.033l-0.02-0.059L64.341,22.35z"/>
		<path fill="#B3282D" d="M63.266,22.175c0.318-0.014,0.673,0.039,1.074,0.175C63.939,22.214,63.585,22.161,63.266,22.175"/>
		<path fill="#B3282D" d="M63.813,47.172c-0.062-0.127-0.128-0.243-0.195-0.35c-0.135-0.214-0.282-0.39-0.439-0.532
			c-0.206-0.188-0.43-0.313-0.668-0.396c-0.054-0.019-0.108-0.038-0.163-0.052c-2.12-0.55-5.321,2.202-8.116,1.204
			c-0.368-0.132-0.729-0.328-1.08-0.605l-0.079,0.128l-0.009,0.013c3.028,4.251,7.571-0.817,10.678,0.726l0.002-0.004L63.813,47.172
			z"/>
		<path fill="#B3282D" d="M53.151,46.44c0.351,0.278,0.712,0.474,1.08,0.605C53.863,46.914,53.502,46.718,53.151,46.44z"/>
		<path fill="#B3282D" d="M63.617,46.822c-0.135-0.214-0.282-0.39-0.439-0.533C63.335,46.433,63.482,46.609,63.617,46.822"/>
		<path fill="#B3282D" d="M62.51,45.893c-0.054-0.019-0.108-0.037-0.163-0.051C62.401,45.857,62.456,45.874,62.51,45.893"/>
		<polygon fill="#B3282D" points="63.813,47.172 63.813,47.172 63.742,47.303 		"/>
		<polygon fill="#B3282D" points="63.813,47.172 63.813,47.172 63.742,47.303 		"/>
		<path fill="#B3282D" d="M57.533,11.68L57.533,11.68c-4.499,0.293-0.599,7.229-4.738,9.56l0.095,0.142
			c5.162-1.209,2.008-7.552,4.904-9.711c0.002-0.004,0.004-0.006,0.009-0.009c-0.072-0.058-0.141-0.117-0.214-0.171l-0.128,0.169
			C57.485,11.668,57.509,11.677,57.533,11.68z"/>
		<path fill="#B3282D" d="M57.533,11.68L57.533,11.68c-0.024-0.004-0.047-0.013-0.072-0.019
			C57.485,11.668,57.509,11.676,57.533,11.68"/>
		<path fill="#B3282D" d="M55.779,55.801c-1.768-1.446-6.056,0.067-8.227-2.239c-0.181-0.192-0.347-0.411-0.496-0.66l-0.077,0.049
			l-0.096,0.061c1.233,4.852,7.156,2.106,9.474,4.54l0.203-0.006h0.001C56.505,56.708,56.221,56.162,55.779,55.801"/>
		<path fill="#B3282D" d="M47.551,53.561c2.172,2.306,6.46,0.795,8.227,2.239C54.011,54.356,49.723,55.867,47.551,53.561"/>
		<path fill="#B3282D" d="M47.279,4.489L47.16,4.425v0.001c-0.375,0.185-0.662,0.394-0.876,0.628
			c-0.014,0.015-0.025,0.033-0.04,0.049c-0.256,0.298-0.402,0.629-0.46,0.989c-0.015,0.095-0.024,0.191-0.029,0.29
			c-0.008,0.197,0.005,0.402,0.033,0.614c0.029,0.211,0.074,0.428,0.132,0.652c0.057,0.222,0.126,0.451,0.202,0.684
			c0.075,0.233,0.159,0.47,0.244,0.71c0.101,0.282,0.203,0.569,0.303,0.858c0.101,0.293,0.196,0.588,0.28,0.886
			c0.054,0.189,0.102,0.377,0.145,0.566c0.078,0.353,0.134,0.706,0.155,1.057c0.048,0.88-0.128,1.748-0.726,2.562l0.173,0.117
			c4.023-3.033-0.93-7.515,0.601-10.589h-0.001L47.279,4.489z"/>
		<path fill="#B3282D" d="M46.285,5.054c0.214-0.232,0.5-0.443,0.876-0.628C46.785,4.611,46.498,4.821,46.285,5.054"/>
		<path fill="#B3282D" d="M46.366,9.042c0.1,0.281,0.203,0.568,0.303,0.857C46.569,9.609,46.466,9.323,46.366,9.042"/>
		<path fill="#B3282D" d="M46.949,10.785c0.053,0.189,0.102,0.377,0.144,0.567C47.051,11.162,47.002,10.973,46.949,10.785"/>
		<path fill="#B3282D" d="M46.245,5.104c-0.257,0.298-0.402,0.629-0.46,0.988C45.843,5.732,45.988,5.401,46.245,5.104"/>
		<path fill="#B3282D" d="M24.346,47.271c0.001,0.081,1.125,2.639,3.959,4.354c0.234,0.142,0.482,0.276,0.74,0.404
			c1.325,0.658,2.958,1.123,4.967,1.123c2.847,0,5.06-1.095,6.648-2.34c0.227-0.178,0.442-0.359,0.643-0.54
			c1.613-1.45,2.412-2.921,2.412-3.001c0-0.029-0.231-0.143-0.608-0.309c-0.126-0.055-0.268-0.116-0.423-0.182
			c-0.466-0.197-1.05-0.436-1.668-0.683c-0.412-0.164-0.839-0.333-1.257-0.494c-0.287-0.112-0.566-0.219-0.836-0.322
			c-0.403-0.153-0.774-0.291-1.094-0.406c-0.169-0.061-0.32-0.115-0.454-0.161c-0.305-0.105-0.521-0.172-0.576-0.172
			c-0.623,0-2.122,0.542-2.767,0.542c-0.648,0-2.194-0.542-2.77-0.542c-0.208,0-1.558,0.499-3.011,1.071
			c-0.291,0.114-0.584,0.231-0.875,0.348c-0.418,0.168-0.822,0.333-1.197,0.488C25.137,46.882,24.346,47.229,24.346,47.271
			 M41.207,49.07c-1.277,1.593-4.069,2.902-7.141,2.902c-2.121,0-3.869-0.389-5.196-1.146c-0.265-0.152-0.513-0.318-0.745-0.499
			c-0.376-0.293-0.694-0.635-0.978-1.006c-0.066-0.085-0.141-0.162-0.201-0.251c0.218,0.069,0.518,0.143,0.87,0.22
			c1.677,0.363,4.604,0.766,6.217,0.766c1.32,0,3.562-0.271,5.265-0.568c0.34-0.06,0.662-0.121,0.948-0.18
			C40.64,49.225,40.971,49.143,41.207,49.07z M32.182,46.014L32.182,46.014c0.106,0,0.394,0.081,0.71,0.184
			c0.529,0.17,1.141,0.396,1.141,0.396s0.088-0.036,0.227-0.09c0.14-0.055,0.33-0.128,0.534-0.2c0.408-0.145,0.869-0.29,1.086-0.29
			c0.224,0,0.907,0.17,1.738,0.404c0.166,0.046,0.338,0.096,0.514,0.147c0.528,0.153,1.087,0.322,1.611,0.482
			c0.175,0.053,0.346,0.106,0.511,0.158c0.988,0.306,1.748,0.551,1.748,0.551c-0.028,0.009-0.057,0.019-0.085,0.028
			c-0.11,0.037-0.224,0.076-0.343,0.118c-0.063,0.022-0.129,0.045-0.194,0.069c-1.295,0.454-3.217,1.098-7.347,1.098
			c-3.154,0-5.329-0.411-8.22-1.352c0,0,0.351-0.106,0.89-0.267c0.27-0.079,0.586-0.172,0.928-0.273
			C29.344,46.68,31.715,46.014,32.182,46.014"/>
		<path fill="#B3282D" d="M40.245,49.307c0.395-0.082,0.726-0.163,0.961-0.238C40.971,49.144,40.641,49.225,40.245,49.307"/>
		<path fill="#B3282D" d="M39.297,49.487c0.341-0.06,0.662-0.12,0.949-0.18C39.959,49.367,39.638,49.427,39.297,49.487"/>
		<path fill="#B3282D" d="M27.146,49.322c0.284,0.37,0.602,0.712,0.978,1.006C27.749,50.033,27.431,49.691,27.146,49.322"/>
		<path fill="#B3282D" d="M26.945,49.07L26.945,49.07c0.218,0.069,0.518,0.143,0.87,0.22C27.463,49.213,27.162,49.138,26.945,49.07"
			/>
		<path fill="#B3282D" d="M41.916,47.785c0.028-0.01,0.058-0.019,0.085-0.029c0,0-0.76-0.245-1.747-0.551
			c0.987,0.306,1.747,0.551,1.747,0.551C41.974,47.766,41.944,47.776,41.916,47.785"/>
		<path fill="#B3282D" d="M34.032,46.595c0,0-0.612-0.226-1.14-0.396C33.42,46.369,34.032,46.595,34.032,46.595"/>
		<path fill="#B3282D" d="M32.182,46.014c-0.467,0-2.838,0.665-4.551,1.164C29.344,46.68,31.715,46.014,32.182,46.014z"/>
		<path fill="#B3282D" d="M41.573,47.903c-0.063,0.022-0.129,0.044-0.194,0.068C41.445,47.947,41.511,47.925,41.573,47.903"/>
		<path fill="#B3282D" d="M38.132,46.566c0.528,0.153,1.087,0.322,1.611,0.483C39.219,46.888,38.66,46.718,38.132,46.566"/>
		<path fill="#B3282D" d="M35.879,46.014c-0.216,0-0.678,0.145-1.085,0.29C35.201,46.159,35.663,46.014,35.879,46.014z"/>
		<path fill="#B3282D" d="M41.018,46.098c0.618,0.247,1.202,0.485,1.667,0.683C42.22,46.583,41.636,46.344,41.018,46.098"/>
		<path fill="#B3282D" d="M37.831,44.875c0.32,0.116,0.689,0.253,1.094,0.407C38.52,45.129,38.151,44.991,37.831,44.875"/>
		<path fill="#B3282D" d="M29.045,52.03c-0.258-0.129-0.506-0.262-0.74-0.404C28.539,51.768,28.787,51.901,29.045,52.03"/>
		<path fill="#B3282D" d="M27.376,45.962c-0.418,0.167-0.822,0.333-1.197,0.488C26.554,46.295,26.958,46.13,27.376,45.962"/>
		<path fill="#B3282D" d="M34.033,45.085c0.646,0,2.145-0.542,2.767-0.542c0.056,0,0.272,0.067,0.576,0.172
			c-0.305-0.105-0.521-0.172-0.576-0.172C36.177,44.543,34.677,45.085,34.033,45.085c-0.648,0-2.194-0.542-2.77-0.542
			c-0.208,0-1.558,0.499-3.011,1.071c1.453-0.572,2.803-1.071,3.011-1.071C31.839,44.543,33.385,45.085,34.033,45.085"/>
		<path fill="#B3282D" d="M38.899,56.507L38.899,56.507l-0.226,0.052c-0.631,4.917,5.993,4.598,7.071,7.845l0.146-0.051
			C47.319,60.143,39.655,61.008,38.899,56.507"/>
		<path fill="#B3282D" d="M45.89,64.353"/>
		<path fill="#B3282D" d="M38.899,56.506L38.899,56.506c0.756,4.502,8.42,3.637,6.991,7.846h0.001
			C47.319,60.143,39.655,61.008,38.899,56.506"/>
		<path fill="#B3282D" d="M34.801,1.696C34.71,1.8,34.628,1.903,34.557,2.004c-0.026,0.038-0.044,0.073-0.069,0.111
			c-0.042,0.064-0.085,0.129-0.119,0.192c-0.482,0.898-0.241,1.72,0.307,2.542c0.123,0.183,0.259,0.365,0.407,0.548
			c0.221,0.276,0.467,0.553,0.721,0.834c0.254,0.282,0.516,0.569,0.773,0.863c0.17,0.196,0.337,0.395,0.498,0.599
			c0.127,0.162,0.248,0.329,0.363,0.497c0.057,0.083,0.112,0.167,0.166,0.252c0.085,0.137,0.165,0.276,0.24,0.417
			c0.079,0.15,0.153,0.302,0.217,0.457c0.046,0.115,0.088,0.232,0.125,0.351c0.183,0.593,0.233,1.229,0.079,1.921l0.061,0.012
			l0.174,0.033c2.427-4.287-3.787-6.525-3.543-9.931l-0.039-0.002L34.801,1.696z"/>
		<path fill="#B3282D" d="M38.265,11.59L38.265,11.59c0.154-0.692,0.104-1.328-0.079-1.921
			C38.369,10.263,38.418,10.898,38.265,11.59"/>
		<path fill="#B3282D" d="M37.844,8.861c0.079,0.15,0.153,0.302,0.217,0.457C37.997,9.163,37.924,9.011,37.844,8.861"/>
		<path fill="#B3282D" d="M37.438,8.192c0.057,0.083,0.112,0.168,0.166,0.253C37.55,8.36,37.495,8.275,37.438,8.192"/>
		<path fill="#B3282D" d="M34.557,2.004c0.072-0.102,0.154-0.205,0.245-0.308C34.71,1.8,34.628,1.903,34.557,2.004"/>
		<path fill="#B3282D" d="M34.488,2.115c-0.042,0.064-0.085,0.129-0.12,0.192C34.403,2.243,34.447,2.18,34.488,2.115"/>
		<path fill="#B3282D" d="M33.426,66.557L33.426,66.557c2.933-3.342-4.477-5.475-3.459-9.919l-0.04-0.008l-0.185-0.037
			c-2.466,4.305,3.775,6.541,3.528,9.955L33.426,66.557z"/>
		<path fill="#B3282D" d="M29.968,56.638L29.968,56.638c-1.018,4.444,6.391,6.578,3.459,9.919
			C36.359,63.216,28.949,61.082,29.968,56.638"/>
		<path fill="#B3282D" d="M22.338,3.902c-0.357,1.049-0.148,1.783,0.379,2.363c1.185,1.305,3.978,1.834,5.549,3.43
			c0.116,0.118,0.221,0.244,0.323,0.374c0.079,0.101,0.153,0.207,0.221,0.316c0.244,0.386,0.424,0.822,0.513,1.33l0.236-0.048
			c0.6-4.886-5.999-4.576-7.076-7.817L22.46,3.858L22.338,3.902z"/>
		<path fill="#B3282D" d="M28.266,9.695c0.116,0.118,0.222,0.244,0.324,0.374C28.489,9.939,28.382,9.813,28.266,9.695"/>
		<path fill="#B3282D" d="M22.718,6.265c-0.527-0.58-0.736-1.314-0.379-2.363C21.982,4.951,22.191,5.685,22.718,6.265"/>
		<path fill="#B3282D" d="M29.325,11.715c-0.089-0.509-0.271-0.945-0.513-1.33C29.054,10.771,29.236,11.207,29.325,11.715z"/>
		<path fill="#B3282D" d="M21.068,63.825c4.012-1.976-2.118-6.831,0.653-10.558l-0.281-0.026c-3.85,3.028,1.011,7.464-0.508,10.51
			l0.121,0.065L21.068,63.825z"/>
		<path fill="#B3282D" d="M10.696,56.572c0.413-0.027,0.735-0.126,1.018-0.256c0.721-0.33,1.083-0.952,1.265-1.748
			c0.088-0.387,0.142-0.807,0.176-1.254c0.037-0.495,0.055-1.016,0.086-1.542c0.11-1.841,0.384-3.743,2.197-4.762l-0.087-0.142
			c-5.099,1.182-2.116,7.355-4.782,9.609l0.032,0.024L10.696,56.572z"/>
		<path fill="#B3282D" d="M12.979,54.568c0.088-0.387,0.142-0.807,0.176-1.254C13.121,53.76,13.067,54.181,12.979,54.568"/>
		<path fill="#B3282D" d="M13.155,53.313c0.037-0.494,0.055-1.015,0.087-1.541C13.21,52.298,13.191,52.819,13.155,53.313"/>
		<path fill="#B3282D" d="M15.438,47.01L15.438,47.01c-1.814,1.019-2.087,2.921-2.197,4.762
			C13.352,49.931,13.624,48.029,15.438,47.01"/>
		<path fill="#B3282D" d="M11.715,56.316c-0.284,0.13-0.606,0.229-1.018,0.256C11.109,56.545,11.431,56.446,11.715,56.316"/>
		<path fill="#B3282D" d="M11.668,10.708c0.053,0.809,0.326,1.341,0.744,1.702c0.014,0.012,0.022,0.029,0.036,0.041
			c0.413,0.337,0.967,0.51,1.595,0.611c0.939,0.152,2.05,0.14,3.142,0.244c0.307,0.03,0.611,0.073,0.91,0.129
			c0.396,0.072,0.779,0.177,1.145,0.319c0.762,0.299,1.438,0.774,1.925,1.581l0.176-0.113c-1.284-4.979-7.543-1.904-9.683-4.77
			c-0.002-0.003-0.004-0.008-0.007-0.011c-0.046,0.056-0.094,0.114-0.138,0.172L11.668,10.708z"/>
		<path fill="#B3282D" d="M17.185,13.305c0.307,0.029,0.61,0.074,0.91,0.128C17.795,13.379,17.493,13.334,17.185,13.305"/>
		<path fill="#B3282D" d="M11.668,10.708L11.668,10.708c0.053,0.809,0.326,1.341,0.744,1.702
			C11.994,12.049,11.721,11.517,11.668,10.708"/>
		<path fill="#B3282D" d="M21.164,15.333L21.164,15.333c-0.487-0.806-1.163-1.282-1.925-1.58
			C20.001,14.051,20.677,14.527,21.164,15.333"/>
		<path fill="#B3282D" d="M14.042,13.061c-0.628-0.102-1.183-0.273-1.594-0.611C12.86,12.788,13.415,12.959,14.042,13.061"/>
		<path fill="#B3282D" d="M3.89,45.903c3.343,1.137,3.483-3.468,5.654-5.789c0.608-0.65,1.376-1.121,2.418-1.237L11.954,38.8
			l-0.009-0.077c-5.192-0.902-4.804,5.936-8.107,7.034l0.013,0.036L3.89,45.903z"/>
		<path fill="#B3282D" d="M11.963,38.877c-1.042,0.116-1.809,0.586-2.417,1.237C10.154,39.464,10.921,38.993,11.963,38.877z"/>
		<path fill="#B3282D" d="M14.92,21.695L14.92,21.695l0.236-0.035c-3.03-4.23-7.567,0.829-10.668-0.717L4.415,21.08
			C6.384,25.074,11.203,19.019,14.92,21.695"/>
		<path fill="#B3282D" d="M11.947,27.231c-0.833-2.393-4.087-2.196-5.674-2.861c-0.048-0.02-0.102-0.038-0.148-0.06
			c-1.902-0.929-1.617-2.594-1.71-3.23l0.073-0.136c-0.062-0.031-0.123-0.063-0.182-0.099c-0.004-0.002-0.006-0.004-0.009-0.007
			c-0.944,2.964,1.024,5.136,3.549,5.855c2.141,0.611,3.139,1.435,3.619,2.165l0.68-0.075
			C12.178,28.165,12.097,27.662,11.947,27.231"/>
		<path fill="#B3282D" d="M12.147,28.782c0.031-0.618-0.049-1.122-0.199-1.551C12.097,27.661,12.178,28.165,12.147,28.782z"/>
		<path fill="#B3282D" d="M4.415,21.08L4.415,21.08c0.094,0.636-0.191,2.301,1.71,3.23c0.045,0.022,0.1,0.04,0.148,0.06
			c-0.048-0.02-0.102-0.038-0.148-0.06C4.224,23.381,4.509,21.716,4.415,21.08"/>
		<path fill="#B3282D" d="M4.415,21.08"/>
		<path fill="#B3282D" d="M4.415,21.08"/>
		<path fill="#B3282D" d="M56.34,38.198L56.34,38.198c0.235-1.328,0.357-2.691,0.357-4.082c0-1.201-0.092-2.38-0.266-3.529
			l0.394-0.437c-0.248-0.209-0.416-0.427-0.54-0.619h-0.001l-0.018-0.156c-0.016,0.003-0.036,0.005-0.051,0.007
			c-0.126-0.607-0.275-1.205-0.447-1.793c-0.343-1.176-0.777-2.312-1.294-3.401c-0.258-0.544-0.538-1.077-0.835-1.596
			c2.722,2.696,5.372-0.686,7.21-1.317c0.501-0.172,0.937-0.215,1.318-0.176c0.19,0.019,0.367,0.059,0.532,0.113
			c0.819,0.27,1.321,0.899,1.644,1.138l0.03,0.088l0.02,0.058c0.062-0.021,0.125-0.041,0.19-0.057h0.014
			c-1.431-2.763-4.358-2.908-6.652-1.631c-2.814,1.566-4.254,1.126-4.995,0.662c-0.019-0.031-0.038-0.059-0.058-0.087l-0.095-0.143
			c-0.373-0.557-0.775-1.091-1.195-1.611c-1.037-1.289-2.205-2.467-3.493-3.498c0.815,0.255,1.496,0.204,2.082-0.037
			c0.732-0.3,1.314-0.895,1.821-1.555c0.71-0.923,1.271-1.973,1.885-2.517c0.432-0.381,0.849-0.579,1.244-0.681
			c0.779-0.2,1.459,0.01,1.945,0.188c0.141,0.051,0.273,0.1,0.378,0.131l0.128-0.169c-2.329-1.775-4.976-0.786-6.557,1.21
			c-1.803,2.277-3.2,2.619-4.09,2.556c-0.082-0.058-0.164-0.115-0.248-0.171l-0.173-0.117c-1.86-1.242-3.909-2.214-6.095-2.858
			h0.001c0.926-0.147,1.536-0.597,1.964-1.193c0.057-0.079,0.109-0.162,0.16-0.247c0.127-0.211,0.239-0.432,0.332-0.666
			c0.059-0.147,0.112-0.299,0.161-0.452c0.388-1.228,0.487-2.599,0.886-3.417c0.044-0.091,0.098-0.154,0.144-0.234
			c0.949-1.619,2.482-1.386,3.087-1.477l0.119,0.064l0.017,0.009c0.03-0.06,0.065-0.123,0.099-0.181
			c0.003-0.002,0.005-0.005,0.007-0.009c-2.962-0.941-5.137,1.024-5.855,3.55c-0.746,2.615-1.806,3.526-2.635,3.865
			c-0.138-0.029-0.274-0.06-0.413-0.087l-0.173-0.034l-0.062-0.012c-1.345-0.253-2.733-0.387-4.151-0.387
			c-0.863,0-1.715,0.052-2.556,0.145c0.164-0.103,0.311-0.213,0.443-0.328c1.573-1.389,0.864-3.635,0.572-5.346
			c-0.024-0.143-0.045-0.281-0.063-0.416c-0.016-0.134-0.029-0.265-0.036-0.39c-0.007-0.124-0.007-0.244,0-0.357
			c0.107-1.765,1.268-2.312,1.971-2.639c0.139-0.065,0.267-0.124,0.358-0.179l0.116,0.007l0.039,0.003
			c0.005-0.066,0.012-0.131,0.021-0.199c0-0.003,0.002-0.008,0.002-0.012c-3.099,0.262-4.354,2.913-4.052,5.521
			c0.313,2.691-0.316,3.942-0.949,4.573c-0.14,0.026-0.281,0.052-0.419,0.079l-0.236,0.047v0.005
			c-1.139,0.25-2.245,0.587-3.313,1.004c-1.067,0.416-2.095,0.912-3.078,1.479h0.001h-0.001c2.015-2.579-1.07-5.061-1.672-6.808
			c-0.396-1.154-0.102-1.957,0.288-2.537c0.102-0.153,0.208-0.293,0.314-0.415c0.019-0.023,0.04-0.049,0.059-0.072
			c0.167-0.189,0.321-0.343,0.415-0.47l0.122-0.043l0.024-0.008c-0.022-0.064-0.041-0.127-0.056-0.192c0-0.002,0-0.007-0.004-0.012
			c-2.761,1.43-2.907,4.357-1.628,6.651c1.406,2.529,1.195,3.946,0.8,4.747c-0.087,0.058-0.17,0.117-0.255,0.176l-0.176,0.113
			c0.002,0.002,0.002,0.005,0.005,0.007c-0.379,0.27-0.743,0.561-1.104,0.853c-1.042,0.842-2.018,1.766-2.899,2.779
			c-0.395,0.454-0.773,0.925-1.132,1.412c1.304-3.452-2.748-4.598-4.02-6.036c-1.403-1.588-0.501-3.015-0.346-3.639l-0.155-0.096
			c-1.82,2.336-0.831,5.006,1.178,6.597c2.527,2.002,2.671,3.502,2.523,4.367c-0.02,0.028-0.038,0.056-0.057,0.085l-0.236,0.035
			c0.048,0.035,0.098,0.071,0.145,0.107c-0.334,0.529-0.645,1.072-0.935,1.63c-0.29,0.557-0.557,1.127-0.802,1.711
			c-0.49,1.166-0.887,2.382-1.183,3.638l-0.68,0.075c0.248,0.385,0.356,0.744,0.408,1.033l-0.043,0.148
			c0.007,0.003,0.015,0.004,0.021,0.007c0.011,0.003,0.021,0.007,0.03,0.01c-0.097,0.559-0.164,1.129-0.222,1.702
			c-0.078,0.776-0.13,1.561-0.13,2.358c0,0.985,0.077,1.951,0.196,2.905c0.028,0.224,0.044,0.452,0.078,0.674v0.001l-0.21,0.072
			l-0.435,0.152c0.385,0.262,0.623,0.556,0.784,0.803l0.009,0.077l0.009,0.077c0.02-0.002,0.038-0.004,0.056-0.007h0.001
			c0.254,1.221,0.604,2.406,1.041,3.546c0.437,1.14,0.962,2.236,1.565,3.28c-0.684-0.689-1.362-0.994-2.026-1.053
			c-0.165-0.015-0.331-0.014-0.494,0c-0.49,0.042-0.971,0.202-1.435,0.422c-0.219,0.103-0.432,0.222-0.643,0.346
			c-0.147,0.085-0.291,0.173-0.434,0.263c-0.38,0.242-0.746,0.492-1.094,0.714c-0.266,0.17-0.521,0.323-0.765,0.441
			c-0.122,0.059-0.241,0.109-0.356,0.149c-0.25,0.086-0.484,0.14-0.704,0.167c-0.219,0.027-0.423,0.028-0.613,0.009
			c-0.571-0.057-1.017-0.299-1.369-0.561c-0.235-0.175-0.428-0.359-0.588-0.505c-0.08-0.073-0.152-0.137-0.217-0.185l-0.039-0.11
			l-0.013-0.037c-0.064,0.022-0.128,0.041-0.193,0.058c0,0-0.007,0-0.013,0.002c1.431,2.761,4.359,2.907,6.653,1.628
			c2.849-1.586,4.291-1.115,5.022-0.643c0.015,0.022,0.029,0.044,0.043,0.066l0.088,0.143c0.002-0.001,0.005-0.001,0.007-0.005
			c0.817,1.216,1.758,2.337,2.786,3.37c0.412,0.414,0.838,0.811,1.28,1.192c0.221,0.19,0.434,0.389,0.662,0.57
			c-0.05-0.016-0.096-0.021-0.145-0.036c-0.34-0.098-0.659-0.148-0.955-0.146c-0.013,0-0.027-0.003-0.04-0.003
			c-2.445,0.045-3.464,3.183-4.699,4.275c-1.353,1.196-2.587,0.717-3.31,0.453c-0.125-0.045-0.237-0.086-0.329-0.109L10.6,56.5
			l-0.032-0.023c-0.042,0.037-0.086,0.073-0.131,0.104c-0.002,0.003-0.007,0.005-0.009,0.008c2.375,2.004,5.135,1.019,6.767-1.037
			c1.831-2.311,3.239-2.63,4.13-2.555c0.076,0.051,0.148,0.105,0.225,0.158c-0.037,0.028-0.077,0.058-0.112,0.086l0.281,0.026
			c1.868,1.246,3.933,2.221,6.134,2.864c-2.174,0.313-2.658,2.245-3.011,3.958c-0.161,0.779-0.294,1.512-0.546,2.027
			c-0.929,1.902-2.593,1.616-3.229,1.709l-0.015-0.009l-0.121-0.065c-0.03,0.062-0.065,0.123-0.099,0.182
			c-0.003,0.004-0.005,0.007-0.007,0.009c2.966,0.944,5.138-1.023,5.856-3.549c0.758-2.655,1.843-3.554,2.673-3.878
			c0.129,0.028,0.259,0.054,0.388,0.079l0.185,0.037l0.04,0.008c0.289,0.055,0.587,0.081,0.88,0.124
			c0.745,0.11,1.5,0.181,2.265,0.215c0.334,0.015,0.663,0.046,1.001,0.046c0.884,0,1.752-0.05,2.609-0.151
			c-0.584,0.353-0.947,0.793-1.171,1.278c-0.101,0.217-0.181,0.44-0.229,0.673c-0.031,0.152-0.051,0.306-0.065,0.461
			c-0.025,0.312-0.018,0.632,0.01,0.953c0.027,0.322,0.075,0.644,0.131,0.962c0.166,0.953,0.399,1.86,0.358,2.543
			c-0.033,0.528-0.16,0.948-0.341,1.285c-0.336,0.624-0.853,0.959-1.299,1.188c-0.278,0.142-0.531,0.247-0.689,0.341l-0.156-0.009
			c-0.003,0.066-0.011,0.131-0.02,0.199c0,0.005-0.002,0.006-0.002,0.012c3.098-0.263,4.355-2.911,4.053-5.522
			c-0.317-2.739,0.336-3.984,0.981-4.603c0.13-0.026,0.258-0.049,0.391-0.075l0.226-0.052v0.001
			c1.431-0.313,2.806-0.778,4.124-1.353c0.79-0.345,1.565-0.719,2.305-1.15c-0.913,1.136-0.83,2.253-0.396,3.298
			c0.557,1.343,1.693,2.567,2.033,3.556c0.343,1.002,0.17,1.746-0.136,2.304c-0.076,0.14-0.161,0.268-0.249,0.386
			c-0.262,0.352-0.546,0.61-0.689,0.803l-0.146,0.052c0.021,0.061,0.04,0.124,0.057,0.189c0,0.005,0,0.007,0.002,0.013
			c2.761-1.43,2.907-4.358,1.629-6.651c-1.428-2.566-1.188-3.991-0.782-4.785c0.078-0.051,0.155-0.105,0.232-0.16l0.096-0.061
			l0.077-0.049c-0.003-0.001-0.003-0.003-0.004-0.004c-0.001-0.001-0.001-0.002-0.002-0.003c0.494-0.351,0.974-0.721,1.438-1.11
			c0.465-0.389,0.913-0.796,1.345-1.22c0.863-0.848,1.66-1.767,2.381-2.745c-0.085,0.219-0.15,0.427-0.194,0.628
			c-0.09,0.401-0.102,0.769-0.053,1.106c0.031,0.221,0.097,0.425,0.176,0.623c0.136,0.339,0.334,0.647,0.573,0.929
			c0.156,0.184,0.323,0.361,0.508,0.525c0.127,0.113,0.258,0.222,0.393,0.328c0.944,0.741,2.042,1.317,2.602,1.949
			c1.401,1.587,0.497,3.017,0.342,3.638l-0.204,0.007c0.074,0.077,0.149,0.162,0.214,0.251c0.003,0.004,0.005,0.007,0.007,0.009
			c2.004-2.375,1.019-5.136-1.037-6.767c-2.563-2.031-2.676-3.546-2.516-4.402c0.015-0.02,0.024-0.04,0.04-0.061l0.009-0.014
			l0.079-0.128c0.335-0.53,0.649-1.075,0.941-1.635c0.033-0.064,0.059-0.132,0.092-0.196c0.332-0.651,0.626-1.322,0.895-2.007
			c0.403-1.024,0.749-2.077,1.004-3.167l0.56-0.247c-0.164-0.305-0.243-0.589-0.289-0.827l0.042-0.147
			C56.378,38.209,56.359,38.203,56.34,38.198z M26.261,14.357c2.029-0.788,4.211-1.259,6.482-1.401
			c0.454-0.029,0.907-0.065,1.368-0.065c0.666,0,1.326,0.031,1.976,0.089c0.651,0.059,1.294,0.147,1.926,0.262
			c1.266,0.23,2.493,0.569,3.671,1.008l-0.009,0.002l-0.009,0.001c0.049,0.021,0.079,0.051,0.122,0.076
			c0.831,0.487,0.354,1.543,0.354,1.543c-0.76,1.685-2.153,3.682-3.494,5.409c-0.383,0.494-0.762,0.966-1.121,1.402
			c-0.179,0.218-0.353,0.427-0.52,0.626c-1.002,1.192-1.748,2.005-1.806,2.074c-0.056,0.065-0.092,0.139-0.113,0.215
			c-0.021,0.076-0.029,0.153-0.029,0.221c-0.001,0.137,0.026,0.243,0.026,0.243c0.082,0.612,0.599,2.937,1.121,5.545
			c0.08,0.401,0.161,0.809,0.24,1.219c0.355,1.842,0.682,3.714,0.837,5.141c0.137,1.269,0.14,2.185-0.092,2.417h-6.266
			c-0.377-0.377-0.133-2.562,0.303-5.127c0.067-0.394,0.138-0.798,0.214-1.205c0.111-0.611,0.23-1.23,0.35-1.84
			c0.08-0.406,0.161-0.809,0.241-1.202c0.48-2.359,0.925-4.385,1.002-4.95c0,0,0.027-0.105,0.026-0.243
			c-0.001-0.069-0.008-0.145-0.029-0.221c-0.021-0.075-0.056-0.15-0.112-0.215c-0.077-0.092-1.38-1.505-2.878-3.379
			c-1.5-1.873-3.197-4.205-4.064-6.131c0,0-0.118-0.254-0.141-0.57C25.814,14.985,25.884,14.606,26.261,14.357 M34.112,55.934
			c-11.931,0-21.603-9.634-21.603-21.521c0-1.937,0.255-3.811,0.739-5.596h0.001c0.86,0.784,1.809,1.504,2.835,2.12
			c1.933,1.161,4.149,1.932,6.641,1.932c3.777,0,7.002-2.992,7.162-3.23c0.079-0.119,0.138-0.224,0.173-0.322
			c0.068-0.196,0.039-0.364-0.115-0.56v-0.001c-0.077-0.098-0.185-0.202-0.327-0.319c-0.034-0.028-0.076-0.066-0.121-0.104
			c-0.477-0.422-1.556-1.452-3.094-2.214c-0.015-0.008-0.03-0.016-0.045-0.023c-1.025-0.501-2.249-0.88-3.633-0.88
			c-3.586,0-6.378,2.34-6.72,2.66c-0.01,0.009-0.025,0.023-0.031,0.028c-0.051,0.051-0.115,0.093-0.188,0.121
			c-0.049,0.019-0.108,0.021-0.165,0.026c-0.026,0.002-0.048,0.013-0.075,0.012c-0.045-0.002-0.094-0.024-0.141-0.037
			c-0.044-0.012-0.086-0.013-0.131-0.034c-0.094-0.044-0.189-0.112-0.28-0.205c-0.054-0.053-0.12-0.126-0.193-0.214
			c-0.221-0.264-0.519-0.659-0.803-1.028c1.629-4.124,4.505-7.613,8.157-10.038c0.365-0.242,0.728-0.485,1.108-0.706l8.31,9.528
			l0.567,0.651c-0.112,1.424-3.732,14.09-2.698,15.125c0.141,0.141,0.876,0.353,1.719,0.558c1.318,0.321,2.901,0.628,2.901,0.628
			s1.747-0.338,3.098-0.676c0.23-0.058,0.452-0.115,0.648-0.171c0.45-0.129,0.783-0.248,0.873-0.338
			c0.68-0.679-0.645-6.367-1.669-10.6c-0.088-0.364-0.173-0.715-0.255-1.053c-0.054-0.224-0.107-0.444-0.159-0.654
			c-0.127-0.526-0.241-1.004-0.336-1.415c-0.159-0.685-0.262-1.182-0.28-1.404l8.915-10.22h0.001
			c2.093,1.205,3.966,2.748,5.54,4.556c0.788,0.903,1.501,1.873,2.13,2.9c0.628,1.026,1.174,2.11,1.625,3.24
			c-0.175,0.226-0.358,0.467-0.528,0.686c-0.215,0.277-0.41,0.519-0.536,0.645c-0.186,0.187-0.38,0.267-0.553,0.276
			c-0.111,0.005-0.207-0.027-0.294-0.072c-0.048-0.025-0.098-0.05-0.134-0.087c-0.036-0.036-0.157-0.144-0.344-0.293
			c-0.046-0.037-0.099-0.076-0.153-0.118c-0.122-0.093-0.256-0.192-0.417-0.304c-0.284-0.196-0.633-0.416-1.028-0.634
			c-0.046-0.026-0.089-0.051-0.137-0.077c-1.2-0.644-2.832-1.262-4.672-1.262c-2.166,0-3.939,0.927-5.168,1.801
			c-0.716,0.51-1.249,1-1.561,1.277c-0.015,0.014-0.029,0.026-0.044,0.039c-0.044,0.04-0.087,0.076-0.121,0.104h-0.001
			c-0.568,0.471-0.587,0.727-0.267,1.202c0.048,0.073,0.386,0.403,0.934,0.826c0.043,0.033,0.089,0.067,0.133,0.101
			c0.169,0.127,0.356,0.26,0.559,0.396c1.329,0.894,3.336,1.908,5.535,1.908c2.181,0,4.148-0.597,5.903-1.521
			c0.405-0.214,0.799-0.443,1.18-0.689c0.342-0.22,0.674-0.452,0.997-0.695c0.278-0.209,0.55-0.423,0.814-0.646
			c0.225-0.191,0.453-0.38,0.667-0.578c0.23,0.838,0.405,1.699,0.533,2.574c0.147,1.012,0.229,2.046,0.229,3.1
			C55.718,46.299,46.045,55.934,34.112,55.934 M27.948,28.393c-0.119-0.053-0.245-0.104-0.368-0.157
			c-1.592-0.669-3.502-1.211-5.122-1.211c-1.052,0-2.226,0.188-3.275,0.568c-0.473,0.171-0.927,0.369-1.322,0.629v-0.001v0.001
			c0.607-0.576,1.457-1.198,2.552-1.583c0.657-0.232,1.402-0.378,2.236-0.378c1.024,0,1.912,0.194,2.664,0.476
			c0.806,0.303,1.449,0.704,1.944,1.079c0.258,0.195,0.477,0.381,0.652,0.542C27.92,28.369,27.936,28.383,27.948,28.393z
			 M28.161,29.405c-0.323,0.451-0.981,1.03-1.81,1.522c-0.243,0.144-0.495,0.282-0.764,0.405v0.001
			c-0.17,0.077-0.344,0.15-0.521,0.216c0.105-0.118,0.199-0.245,0.282-0.378c0.248-0.401,0.391-0.868,0.391-1.368
			c0-0.185-0.027-0.363-0.064-0.536c-0.02-0.094-0.053-0.182-0.083-0.272c-0.04-0.119-0.073-0.241-0.129-0.353
			c0.306,0.056,0.592,0.118,0.858,0.183c0.774,0.187,1.372,0.395,1.795,0.563C28.129,29.393,28.148,29.4,28.161,29.405z
			 M24.956,29.851c0,0.966-0.63,1.77-1.472,1.957c-0.12,0.026-0.245,0.041-0.372,0.041c-0.382,0-0.737-0.126-1.031-0.341
			c-0.196-0.143-0.365-0.327-0.498-0.54c-0.199-0.319-0.315-0.703-0.315-1.117c0-0.3,0.061-0.583,0.169-0.837
			c0.109-0.254,0.267-0.479,0.46-0.66c0.088-0.003,0.178-0.005,0.267-0.005c0.835,0,1.601,0.054,2.292,0.138
			c0.077,0.089,0.147,0.187,0.209,0.289C24.849,29.087,24.956,29.455,24.956,29.851 M20.525,28.474L20.525,28.474
			c-0.146,0.249-0.235,0.527-0.295,0.816c-0.034,0.167-0.071,0.335-0.071,0.512c0,0.356,0.073,0.694,0.204,1.005
			c0.065,0.156,0.146,0.304,0.239,0.443c0.094,0.139,0.2,0.271,0.318,0.391c-0.178-0.044-0.35-0.097-0.523-0.149
			c-0.794-0.239-1.53-0.545-2.136-0.857c-0.369-0.189-0.692-0.378-0.955-0.552c-0.153-0.102-0.278-0.194-0.388-0.281
			c-0.078-0.063-0.152-0.124-0.205-0.176c0.077-0.045,0.168-0.094,0.272-0.144C17.709,29.128,19.051,28.684,20.525,28.474
			 M45.662,27.026c-1.745,0-3.837,0.628-5.489,1.367c0.323-0.302,0.805-0.701,1.435-1.074c0.268-0.16,0.568-0.309,0.891-0.448
			c0.178-0.076,0.362-0.146,0.556-0.212c0.7-0.235,1.499-0.398,2.416-0.398c0.771,0,1.461,0.131,2.081,0.333
			c0.142,0.046,0.277,0.097,0.412,0.151c0.757,0.303,1.396,0.71,1.902,1.128c0.14,0.117,0.272,0.234,0.394,0.349
			C48.988,27.389,47.186,27.026,45.662,27.026 M46.85,29.851c0,0.674-0.309,1.268-0.781,1.629c-0.061,0.046-0.127,0.084-0.193,0.123
			c-0.05,0.03-0.099,0.065-0.153,0.089c-0.219,0.101-0.462,0.157-0.716,0.157c-0.509,0-0.97-0.223-1.303-0.585
			c-0.334-0.362-0.54-0.861-0.54-1.413c0-0.228,0.042-0.444,0.107-0.647c0.085-0.269,0.218-0.514,0.394-0.717
			c0.188-0.022,0.394-0.037,0.592-0.054c0.532-0.048,1.09-0.084,1.701-0.084c0.066,0,0.132,0.002,0.2,0.004
			c0.022,0,0.044,0,0.067,0.001c0.169,0.162,0.307,0.362,0.413,0.581C46.769,29.21,46.85,29.519,46.85,29.851 M39.96,29.405
			c0.014-0.006,0.037-0.014,0.052-0.019c0.381-0.153,0.917-0.336,1.586-0.508c0.324-0.083,0.669-0.164,1.057-0.236
			c-0.105,0.214-0.172,0.446-0.218,0.686c-0.029,0.155-0.057,0.311-0.057,0.475c0,0.574,0.197,1.1,0.516,1.538
			c0.051,0.07,0.097,0.143,0.155,0.208c-1.062-0.395-2.001-1.029-2.607-1.602c-0.101-0.095-0.192-0.19-0.274-0.279
			C40.09,29.576,40.019,29.488,39.96,29.405L39.96,29.405z M47.2,31.64c0.096-0.098,0.178-0.207,0.258-0.317
			c0.312-0.434,0.502-0.954,0.502-1.521c0-0.483-0.133-0.937-0.365-1.329c1.475,0.211,2.816,0.655,3.541,1.008
			c0.015,0.007,0.023,0.013,0.038,0.02c0.086,0.043,0.167,0.085,0.233,0.124c-0.255,0.251-0.808,0.631-1.547,1.009
			C49.121,31.014,48.197,31.392,47.2,31.64z"/>
		<path fill="#B3282D" d="M30.041,22.004c-1.5-1.873-3.197-4.205-4.064-6.131c0,0-0.117-0.254-0.14-0.571
			c0.023,0.317,0.14,0.571,0.14,0.571C26.844,17.799,28.541,20.131,30.041,22.004"/>
		<path fill="#B3282D" d="M37.192,40.385L37.192,40.385c0.232-0.232,0.229-1.15,0.092-2.418
			C37.421,39.236,37.424,40.153,37.192,40.385"/>
		<path fill="#B3282D" d="M31.228,35.258c-0.436,2.564-0.68,4.749-0.303,5.127C30.548,40.008,30.792,37.823,31.228,35.258"/>
		<path fill="#B3282D" d="M36.207,31.608c-0.522-2.608-1.038-4.933-1.121-5.546c0,0-0.027-0.104-0.026-0.242
			c-0.001,0.137,0.026,0.242,0.026,0.242C35.168,26.674,35.685,29,36.207,31.608"/>
		<path fill="#B3282D" d="M34.111,12.891c-0.461,0-0.914,0.036-1.368,0.064C33.197,12.927,33.65,12.891,34.111,12.891z"/>
		<path fill="#B3282D" d="M41.789,14.33c-0.043-0.025-0.072-0.055-0.121-0.076l0.008-0.001l-0.008,0.001
			C41.718,14.275,41.747,14.305,41.789,14.33"/>
		<path fill="#B3282D" d="M35.089,25.598c0.021-0.075,0.057-0.151,0.113-0.215c0.058-0.069,0.804-0.882,1.806-2.074
			c-1.002,1.192-1.748,2.005-1.806,2.074C35.146,25.447,35.11,25.523,35.089,25.598"/>
		<path fill="#B3282D" d="M31.228,35.258c0.067-0.394,0.139-0.798,0.214-1.205C31.367,34.461,31.295,34.864,31.228,35.258"/>
		<path fill="#B3282D" d="M36.207,31.608c0.08,0.401,0.16,0.809,0.24,1.218C36.367,32.417,36.287,32.009,36.207,31.608"/>
		<path fill="#B3282D" d="M20.525,28.474L20.525,28.474c-1.475,0.211-2.816,0.655-3.54,1.008
			C17.709,29.128,19.05,28.684,20.525,28.474"/>
		<path fill="#B3282D" d="M17.306,30.082c-0.154-0.102-0.278-0.194-0.388-0.281C17.027,29.888,17.153,29.981,17.306,30.082"/>
		<path fill="#B3282D" d="M20.363,30.807c-0.132-0.31-0.203-0.65-0.203-1.006c0-0.177,0.036-0.344,0.071-0.512
			c-0.035,0.168-0.071,0.336-0.071,0.512C20.16,30.157,20.231,30.497,20.363,30.807"/>
		<path fill="#B3282D" d="M20.397,31.491c0.173,0.052,0.345,0.104,0.523,0.149c-0.118-0.12-0.224-0.25-0.318-0.391
			c0.094,0.14,0.2,0.271,0.318,0.391C20.742,31.595,20.57,31.543,20.397,31.491"/>
		<path fill="#B3282D" d="M25.313,26.737c0.806,0.302,1.448,0.704,1.944,1.078C26.761,27.441,26.119,27.039,25.313,26.737"/>
		<path fill="#B3282D" d="M25.313,26.737c-0.752-0.282-1.64-0.476-2.664-0.476c-0.834,0-1.579,0.146-2.236,0.377
			c0.658-0.231,1.402-0.377,2.236-0.377C23.673,26.262,24.561,26.455,25.313,26.737"/>
		<path fill="#B3282D" d="M17.861,28.222L17.861,28.222c0.608-0.575,1.458-1.197,2.553-1.583
			C19.318,27.025,18.469,27.647,17.861,28.222"/>
		<path fill="#B3282D" d="M19.182,27.593c1.049-0.38,2.223-0.567,3.276-0.567c1.619,0,3.53,0.542,5.121,1.211
			c-1.591-0.669-3.502-1.211-5.121-1.211C21.405,27.027,20.231,27.213,19.182,27.593"/>
		<path fill="#B3282D" d="M27.908,28.358c0.012,0.011,0.028,0.024,0.04,0.035C27.936,28.383,27.92,28.369,27.908,28.358"/>
		<path fill="#B3282D" d="M25.675,29.266c-0.02-0.094-0.052-0.182-0.082-0.272C25.623,29.085,25.654,29.173,25.675,29.266"/>
		<path fill="#B3282D" d="M26.321,28.824c0.774,0.187,1.373,0.396,1.795,0.564C27.694,29.22,27.095,29.011,26.321,28.824"/>
		<path fill="#B3282D" d="M25.066,31.548L25.066,31.548c0.105-0.118,0.2-0.245,0.282-0.378
			C25.265,31.304,25.171,31.43,25.066,31.548"/>
		<path fill="#B3282D" d="M25.587,31.332L25.587,31.332L25.587,31.332z"/>
		<path fill="#B3282D" d="M26.351,30.927c0.829-0.492,1.487-1.071,1.81-1.522C27.838,29.855,27.18,30.434,26.351,30.927"/>
		<path fill="#B3282D" d="M22.165,28.349L22.165,28.349c-0.09,0-0.179,0.002-0.268,0.005c-0.193,0.182-0.35,0.406-0.459,0.66
			c0.109-0.254,0.266-0.479,0.46-0.66C21.986,28.351,22.075,28.349,22.165,28.349"/>
		<path fill="#B3282D" d="M21.438,29.014c-0.109,0.254-0.169,0.538-0.169,0.837c0,0.414,0.116,0.798,0.314,1.117
			c-0.198-0.319-0.314-0.703-0.314-1.117C21.268,29.552,21.328,29.268,21.438,29.014"/>
		<path fill="#B3282D" d="M21.583,30.968c0.132,0.213,0.302,0.396,0.498,0.54C21.885,31.364,21.716,31.181,21.583,30.968"/>
		<path fill="#B3282D" d="M47.552,26.594c-0.62-0.201-1.309-0.332-2.08-0.332c-0.919,0-1.717,0.162-2.416,0.397
			c0.699-0.235,1.498-0.397,2.416-0.397C46.243,26.262,46.932,26.393,47.552,26.594"/>
		<path fill="#B3282D" d="M45.662,27.026c-1.745,0-3.837,0.628-5.489,1.367C41.826,27.654,43.917,27.026,45.662,27.026
			c1.524,0,3.326,0.362,4.598,1.196C48.988,27.388,47.186,27.026,45.662,27.026"/>
		<path fill="#B3282D" d="M47.965,26.745c0.757,0.304,1.395,0.71,1.901,1.128C49.36,27.454,48.722,27.048,47.965,26.745"/>
		<path fill="#B3282D" d="M41.608,27.319c0.268-0.159,0.568-0.308,0.891-0.448C42.175,27.01,41.875,27.16,41.608,27.319"/>
		<path fill="#B3282D" d="M43.051,31.548c-0.057-0.065-0.103-0.138-0.155-0.208C42.948,31.41,42.994,31.484,43.051,31.548z"/>
		<path fill="#B3282D" d="M40.171,29.666c-0.081-0.091-0.152-0.178-0.212-0.261C40.02,29.488,40.09,29.575,40.171,29.666"/>
		<path fill="#B3282D" d="M42.655,28.642L42.655,28.642c-0.105,0.214-0.172,0.446-0.218,0.686
			C42.483,29.088,42.55,28.855,42.655,28.642"/>
		<path fill="#B3282D" d="M40.013,29.385c0.38-0.152,0.917-0.336,1.586-0.508C40.929,29.049,40.393,29.233,40.013,29.385"/>
		<path fill="#B3282D" d="M51.407,29.625c-0.066-0.04-0.147-0.081-0.233-0.124C51.26,29.544,51.341,29.586,51.407,29.625"/>
		<path fill="#B3282D" d="M47.2,31.64L47.2,31.64c0.096-0.098,0.178-0.207,0.258-0.317C47.378,31.433,47.296,31.543,47.2,31.64"/>
		<path fill="#B3282D" d="M47.595,28.473L47.595,28.473c1.475,0.211,2.816,0.655,3.541,1.008
			C50.41,29.128,49.07,28.684,47.595,28.473"/>
		<path fill="#B3282D" d="M46.069,31.481c-0.061,0.046-0.127,0.084-0.193,0.123C45.942,31.565,46.008,31.527,46.069,31.481"/>
		<path fill="#B3282D" d="M44.256,28.433c-0.198,0.018-0.404,0.032-0.592,0.055c-0.176,0.202-0.308,0.448-0.394,0.717
			c0.086-0.269,0.219-0.514,0.394-0.717C43.852,28.464,44.058,28.451,44.256,28.433"/>
		<path fill="#B3282D" d="M43.704,31.264c0.334,0.362,0.794,0.585,1.303,0.585c0.254,0,0.496-0.056,0.716-0.157
			c-0.22,0.101-0.462,0.157-0.716,0.157C44.498,31.849,44.037,31.626,43.704,31.264"/>
		<path fill="#B3282D" d="M46.157,28.352c0.022,0.001,0.044,0.001,0.067,0.001c0.17,0.162,0.307,0.363,0.413,0.582
			c-0.106-0.219-0.243-0.42-0.413-0.582C46.201,28.352,46.179,28.353,46.157,28.352"/>
		<path fill="#B3282D" d="M43.929,6.137L43.929,6.137c0.044-0.09,0.097-0.153,0.144-0.234C44.025,5.984,43.973,6.047,43.929,6.137"
			/>
		<path fill="#B3282D" d="M40.427,12.112L40.427,12.112c2.185,0.644,4.234,1.615,6.094,2.858
			C44.661,13.727,42.612,12.756,40.427,12.112"/>
		<path fill="#B3282D" d="M42.391,10.919c0.057-0.079,0.109-0.162,0.16-0.247C42.5,10.756,42.448,10.839,42.391,10.919"/>
		<path fill="#B3282D" d="M55.138,11.342c-0.395,0.102-0.813,0.3-1.244,0.681c-0.615,0.543-1.175,1.593-1.884,2.517
			c0.71-0.923,1.271-1.973,1.884-2.517C54.326,11.641,54.743,11.443,55.138,11.342"/>
		<path fill="#B3282D" d="M50.188,16.095c-0.586,0.24-1.267,0.292-2.082,0.036C48.922,16.387,49.602,16.335,50.188,16.095"/>
		<path fill="#B3282D" d="M57.084,11.529c0.141,0.051,0.272,0.1,0.378,0.132C57.355,11.629,57.225,11.58,57.084,11.529"/>
		<path fill="#B3282D" d="M52.795,21.24L52.795,21.24c-0.373-0.557-0.776-1.091-1.195-1.61C52.019,20.15,52.422,20.683,52.795,21.24
			"/>
		<path fill="#B3282D" d="M64.341,22.351c-0.323-0.24-0.825-0.868-1.645-1.139C63.516,21.482,64.018,22.111,64.341,22.351z"/>
		<path fill="#B3282D" d="M55.766,27.589c-0.343-1.176-0.777-2.312-1.294-3.401C54.989,25.277,55.423,26.413,55.766,27.589"/>
		<path fill="#B3282D" d="M60.847,21.275c0.501-0.172,0.937-0.215,1.318-0.176C61.784,21.06,61.348,21.103,60.847,21.275
			c-1.838,0.631-4.488,4.013-7.21,1.317C56.359,25.288,59.009,21.906,60.847,21.275"/>
		<path fill="#B3282D" d="M56.213,29.382L56.213,29.382c-0.126-0.607-0.275-1.205-0.447-1.793
			C55.938,28.177,56.087,28.774,56.213,29.382"/>
		<path fill="#B3282D" d="M56.339,38.197L56.339,38.197c0.019,0.005,0.039,0.012,0.056,0.016
			C56.378,38.209,56.359,38.202,56.339,38.197"/>
		<path fill="#B3282D" d="M56.083,39.434L56.083,39.434c-0.255,1.09-0.601,2.143-1.005,3.167
			C55.481,41.577,55.828,40.524,56.083,39.434"/>
		<path fill="#B3282D" d="M54.091,44.805c0.034-0.064,0.06-0.132,0.092-0.196C54.151,44.672,54.124,44.741,54.091,44.805"/>
		<path fill="#B3282D" d="M52.214,47.818L52.214,47.818c-0.086,0.219-0.15,0.427-0.194,0.628
			C52.064,48.246,52.129,48.037,52.214,47.818"/>
		<path fill="#B3282D" d="M53.223,51.629c-0.185-0.164-0.351-0.341-0.508-0.525C52.872,51.288,53.038,51.465,53.223,51.629"/>
		<path fill="#B3282D" d="M51.966,49.552c0.032,0.22,0.098,0.425,0.177,0.623C52.064,49.978,51.998,49.773,51.966,49.552"/>
		<polyline fill="#B3282D" points="47.051,52.896 47.055,52.901 47.051,52.896 		"/>
		<path fill="#B3282D" d="M56.56,57.545L56.56,57.545c0.155-0.622,1.059-2.052-0.342-3.638c-0.56-0.633-1.657-1.209-2.601-1.949
			c0.944,0.741,2.041,1.316,2.601,1.949C57.619,55.493,56.715,56.923,56.56,57.545"/>
		<path fill="#B3282D" d="M44.932,57.303c-0.433-1.045-0.516-2.162,0.397-3.298l-0.001,0.001
			C44.416,55.141,44.499,56.257,44.932,57.303"/>
		<path fill="#B3282D" d="M46.829,63.164c0.306-0.559,0.48-1.302,0.136-2.304c-0.34-0.989-1.476-2.213-2.033-3.557
			c0.557,1.344,1.693,2.568,2.033,3.557C47.309,61.861,47.136,62.605,46.829,63.164"/>
		<path fill="#B3282D" d="M43.023,55.154c-1.318,0.574-2.692,1.039-4.124,1.353C40.331,56.194,41.705,55.728,43.023,55.154"/>
		<path fill="#B3282D" d="M30.847,56.761c0.745,0.109,1.5,0.181,2.265,0.215C32.347,56.942,31.592,56.871,30.847,56.761"/>
		<path fill="#B3282D" d="M35.267,60.237c0.027,0.321,0.075,0.644,0.131,0.962C35.342,60.881,35.294,60.558,35.267,60.237"/>
		<path fill="#B3282D" d="M35.414,65.027c0.182-0.337,0.308-0.756,0.341-1.285c0.042-0.683-0.191-1.59-0.358-2.543
			c0.166,0.953,0.399,1.86,0.357,2.543C35.722,64.27,35.595,64.69,35.414,65.027"/>
		<path fill="#B3282D" d="M33.426,66.557L33.426,66.557c0.159-0.095,0.411-0.199,0.689-0.341
			C33.837,66.358,33.585,66.462,33.426,66.557z"/>
		<path fill="#B3282D" d="M35.551,58.149c0.225-0.485,0.588-0.924,1.172-1.278h-0.001C36.138,57.225,35.776,57.664,35.551,58.149"/>
		<path fill="#B3282D" d="M19.034,51.953c0.013,0,0.027,0.003,0.04,0.003C19.061,51.956,19.046,51.953,19.034,51.953"/>
		<path fill="#B3282D" d="M10.696,56.572L10.696,56.572c0.092,0.023,0.204,0.063,0.329,0.108
			C10.9,56.635,10.788,56.595,10.696,56.572"/>
		<path fill="#B3282D" d="M19.511,51.567c-0.442-0.381-0.869-0.778-1.28-1.192C18.642,50.789,19.07,51.186,19.511,51.567"/>
		<path fill="#B3282D" d="M20.174,52.137L20.174,52.137c-0.05-0.016-0.096-0.021-0.145-0.036
			C20.078,52.116,20.123,52.121,20.174,52.137"/>
		<polyline fill="#B3282D" points="15.445,47.005 15.445,47.005 15.438,47.009 15.445,47.005 		"/>
		<path fill="#B3282D" d="M12.107,44.643c-0.491,0.042-0.971,0.202-1.436,0.422C11.136,44.844,11.616,44.685,12.107,44.643"/>
		<path fill="#B3282D" d="M9.595,45.674c-0.38,0.242-0.746,0.491-1.094,0.714C8.849,46.165,9.215,45.916,9.595,45.674"/>
		<path fill="#B3282D" d="M12.019,38.871L12.019,38.871c0.255,1.221,0.605,2.405,1.042,3.546
			C12.625,41.276,12.275,40.092,12.019,38.871"/>
		<path fill="#B3282D" d="M6.063,47.154c-0.571-0.058-1.017-0.299-1.369-0.561C5.046,46.855,5.492,47.096,6.063,47.154"/>
		<path fill="#B3282D" d="M10.671,45.065c-0.219,0.103-0.432,0.222-0.643,0.346C10.239,45.287,10.453,45.168,10.671,45.065"/>
		<path fill="#B3282D" d="M14.626,45.696L14.626,45.696c-0.684-0.689-1.362-0.994-2.026-1.053
			C13.264,44.702,13.943,45.007,14.626,45.696"/>
		<path fill="#B3282D" d="M6.677,47.144c0.219-0.027,0.453-0.081,0.704-0.167c0.115-0.04,0.234-0.09,0.356-0.149
			c-0.122,0.059-0.241,0.109-0.357,0.149C7.131,47.063,6.897,47.117,6.677,47.144"/>
		<path fill="#B3282D" d="M11.661,31.757c0.058-0.572,0.126-1.143,0.223-1.702c-0.01-0.003-0.02-0.007-0.03-0.01
			c0.01,0.003,0.02,0.007,0.03,0.01C11.786,30.614,11.719,31.185,11.661,31.757"/>
		<path fill="#B3282D" d="M11.806,37.694c-0.034-0.222-0.05-0.451-0.078-0.675C11.755,37.244,11.772,37.472,11.806,37.694z"/>
		<path fill="#B3282D" d="M15.065,21.803L15.065,21.803c-0.333,0.529-0.645,1.072-0.934,1.629
			C14.42,22.875,14.732,22.332,15.065,21.803"/>
		<path fill="#B3282D" d="M12.147,28.783"/>
		<path fill="#B3282D" d="M12.147,28.782c0.296-1.256,0.692-2.472,1.182-3.638C12.839,26.311,12.443,27.527,12.147,28.782z"/>
		<path fill="#B3282D" d="M21.169,15.34c-0.379,0.27-0.743,0.561-1.104,0.853C20.427,15.901,20.79,15.61,21.169,15.34
			c-0.003-0.003-0.003-0.005-0.005-0.008C21.167,15.336,21.167,15.338,21.169,15.34"/>
		<polygon fill="#B3282D" points="29.325,11.72 29.325,11.72 29.325,11.715 		"/>
		<path fill="#B3282D" d="M21.55,4.858c0.102-0.153,0.208-0.293,0.314-0.415C21.758,4.565,21.653,4.705,21.55,4.858"/>
		<path fill="#B3282D" d="M22.338,3.902c-0.094,0.127-0.247,0.281-0.415,0.47C22.092,4.183,22.245,4.029,22.338,3.902z"/>
		<path fill="#B3282D" d="M22.934,14.204c0.982-0.568,2.01-1.064,3.078-1.48C24.945,13.14,23.917,13.636,22.934,14.204z"/>
		<path fill="#B3282D" d="M34.801,1.695c-0.091,0.055-0.219,0.114-0.357,0.179C34.583,1.81,34.711,1.751,34.801,1.695z"/>
		<path fill="#B3282D" d="M32.51,5.259c-0.017-0.134-0.029-0.264-0.036-0.389C32.481,4.995,32.492,5.124,32.51,5.259"/>
		<path fill="#B3282D" d="M32.572,5.675c0.292,1.711,1.001,3.958-0.572,5.346C33.573,9.632,32.864,7.386,32.572,5.675"/>
		<path fill="#B3282D" d="M38.265,11.59c-1.345-0.253-2.733-0.387-4.151-0.387c-0.863,0-1.715,0.052-2.556,0.145
			c0.841-0.093,1.693-0.145,2.556-0.145C35.531,11.204,36.92,11.337,38.265,11.59z"/>
		<path fill="#B3282D" d="M50.205,26.553c-0.046-0.025-0.089-0.051-0.137-0.076C50.116,26.502,50.158,26.528,50.205,26.553"/>
		<path fill="#B3282D" d="M52.478,30.658c0.342-0.22,0.674-0.452,0.997-0.695C53.152,30.205,52.821,30.437,52.478,30.658"/>
		<path fill="#B3282D" d="M36.754,29.45c-0.054-0.224-0.107-0.444-0.159-0.654C36.647,29.006,36.7,29.226,36.754,29.45"/>
		<path fill="#B3282D" d="M40.228,27.015c-0.717,0.511-1.25,1-1.561,1.277C38.977,28.015,39.51,27.526,40.228,27.015"/>
		<path fill="#B3282D" d="M29.944,28.756c0.154,0.195,0.183,0.364,0.114,0.56C30.127,29.119,30.098,28.951,29.944,28.756"/>
		<path fill="#B3282D" d="M39.168,30.464c0.043,0.033,0.089,0.067,0.134,0.101C39.257,30.53,39.211,30.496,39.168,30.464"/>
		<path fill="#B3282D" d="M22.153,16.505c-3.652,2.425-6.528,5.914-8.157,10.038c0.284,0.368,0.582,0.764,0.803,1.027
			c-0.221-0.263-0.519-0.658-0.803-1.027C15.624,22.419,18.501,18.93,22.153,16.505"/>
		<path fill="#B3282D" d="M44.895,15.758L44.895,15.758l-8.915,10.22c0.017,0.222,0.122,0.719,0.279,1.404
			c-0.158-0.685-0.262-1.182-0.279-1.404L44.895,15.758z"/>
		<path fill="#B3282D" d="M54.956,28.739c-0.215,0.198-0.442,0.388-0.667,0.578C54.514,29.126,54.742,28.937,54.956,28.739"/>
		<path fill="#B3282D" d="M51.298,31.347c-1.755,0.924-3.722,1.521-5.903,1.521c-2.199,0-4.206-1.013-5.535-1.908
			c1.329,0.894,3.336,1.909,5.535,1.909C47.576,32.869,49.543,32.271,51.298,31.347"/>
		<path fill="#B3282D" d="M38.502,28.436L38.502,28.436c0.035-0.029,0.076-0.066,0.121-0.105
			C38.578,28.371,38.537,28.408,38.502,28.436L38.502,28.436z"/>
		<path fill="#B3282D" d="M37.158,41.612c-1.351,0.338-3.098,0.676-3.098,0.676s-1.583-0.306-2.901-0.628
			c1.318,0.322,2.901,0.628,2.901,0.628S35.807,41.951,37.158,41.612"/>
		<path fill="#B3282D" d="M29.618,28.436c-0.034-0.028-0.076-0.065-0.121-0.104C29.541,28.371,29.584,28.408,29.618,28.436
			c0.142,0.118,0.249,0.221,0.326,0.319C29.867,28.657,29.76,28.554,29.618,28.436"/>
		<path fill="#B3282D" d="M51.802,27.609c0.188,0.149,0.308,0.257,0.344,0.293c0.037,0.037,0.086,0.061,0.134,0.087
			c-0.048-0.026-0.098-0.05-0.134-0.087C52.11,27.867,51.99,27.758,51.802,27.609"/>
		<path fill="#B3282D" d="M15.62,28.049c-0.026,0.002-0.048,0.014-0.075,0.012C15.572,28.062,15.594,28.051,15.62,28.049"/>
		<path fill="#B3282D" d="M26.402,26.117c-0.015-0.008-0.03-0.016-0.045-0.023C26.372,26.101,26.387,26.11,26.402,26.117"/>
		<path fill="#B3282D" d="M51.649,27.491c-0.121-0.093-0.256-0.192-0.417-0.304C51.393,27.299,51.528,27.398,51.649,27.491"/>
		<path fill="#B3282D" d="M29.886,29.637c0.08-0.119,0.138-0.223,0.173-0.322C30.024,29.414,29.965,29.518,29.886,29.637
			c-0.16,0.24-3.385,3.231-7.162,3.231c-2.492,0-4.708-0.772-6.641-1.932c1.933,1.16,4.149,1.932,6.641,1.932
			C26.5,32.869,29.727,29.877,29.886,29.637"/>
		<path fill="#B3282D" d="M55.718,34.413c0,11.887-9.673,21.521-21.606,21.521c-11.931,0-21.603-9.634-21.603-21.521
			c0-1.937,0.255-3.811,0.74-5.596c-0.484,1.785-0.74,3.66-0.74,5.596c0,11.886,9.672,21.521,21.603,21.521
			C46.045,55.934,55.718,46.299,55.718,34.413c0-1.054-0.082-2.088-0.229-3.1C55.636,32.325,55.718,33.359,55.718,34.413"/>
		<path fill="#B3282D" d="M15.404,28.024c-0.044-0.012-0.086-0.013-0.131-0.034C15.318,28.011,15.36,28.012,15.404,28.024"/>
		<path fill="#B3282D" d="M29.439,41.103L29.439,41.103c-1.035-1.036,2.585-13.701,2.699-15.125l-0.568-0.651l0.567,0.651
			C32.025,27.402,28.405,40.069,29.439,41.103"/>
		<path fill="#B3282D" d="M52.575,28.06c0.173-0.008,0.367-0.089,0.553-0.276c0.126-0.126,0.321-0.368,0.536-0.645
			c-0.215,0.277-0.41,0.519-0.536,0.645C52.942,27.971,52.748,28.053,52.575,28.06"/>
		<path fill="#B3282D" d="M15.786,28.023c0.073-0.028,0.136-0.07,0.188-0.12c0.006-0.006,0.021-0.019,0.031-0.029
			c-0.01,0.01-0.025,0.023-0.031,0.029C15.922,27.953,15.859,27.995,15.786,28.023"/>
		<path fill="#B3282D" d="M56.083,39.434l0.56-0.247L56.083,39.434z"/>
		<path fill="#B3282D" d="M56.083,39.434l0.56-0.247L56.083,39.434z"/>
		<polygon fill="#B3282D" points="64.341,22.351 64.341,22.351 64.371,22.438 		"/>
		<polygon fill="#B3282D" points="64.341,22.351 64.341,22.351 64.371,22.438 		"/>
		<polygon fill="#B3282D" points="56.265,29.375 56.265,29.375 56.283,29.53 		"/>
		<polygon fill="#B3282D" points="56.265,29.375 56.265,29.375 56.283,29.53 		"/>
		<path fill="#B3282D" d="M64.341,22.35"/>
		<path fill="#B3282D" d="M64.341,22.35"/>
		<polygon fill="#B3282D" points="53.071,46.567 53.062,46.581 53.063,46.58 		"/>
		<polygon fill="#B3282D" points="53.071,46.567 53.062,46.581 53.063,46.58 		"/>
		<path fill="#B3282D" d="M47.055,52.901l-0.076,0.049L47.055,52.901z"/>
		<path fill="#B3282D" d="M47.055,52.901l-0.076,0.049L47.055,52.901z"/>
		<path fill="#B3282D" d="M56.56,57.545"/>
		<path fill="#B3282D" d="M56.56,57.545"/>
		<polygon fill="#B3282D" points="47.296,4.498 47.296,4.498 47.28,4.49 		"/>
		<polygon fill="#B3282D" points="47.296,4.498 47.296,4.498 47.28,4.49 		"/>
		<rect x="38.786" y="56.416" fill="#B3282D" width="0" height="0.232"/>
		<rect x="38.786" y="56.416" fill="#B3282D" width="0" height="0.232"/>
		<path fill="#B3282D" d="M38.899,56.507"/>
		<path fill="#B3282D" d="M38.899,56.507"/>
		<polygon fill="#B3282D" points="38.265,11.591 38.265,11.591 38.327,11.602 		"/>
		<polygon fill="#B3282D" points="38.265,11.591 38.265,11.591 38.327,11.602 		"/>
		<polygon fill="#B3282D" points="34.801,1.695 34.801,1.695 34.918,1.702 		"/>
		<polygon fill="#B3282D" points="34.801,1.695 34.801,1.695 34.918,1.702 		"/>
		<path fill="#B3282D" d="M38.265,11.591"/>
		<path fill="#B3282D" d="M38.265,11.591"/>
		<path fill="#B3282D" d="M34.801,1.696"/>
		<path fill="#B3282D" d="M34.801,1.696"/>
		<polygon fill="#B3282D" points="33.426,66.557 33.426,66.557 33.27,66.548 		"/>
		<polygon fill="#B3282D" points="33.426,66.557 33.426,66.557 33.27,66.548 		"/>
		<path fill="#B3282D" d="M29.928,56.63l-0.185-0.037L29.928,56.63z"/>
		<path fill="#B3282D" d="M29.928,56.63l-0.185-0.037L29.928,56.63z"/>
		<path fill="#B3282D" d="M33.426,66.557"/>
		<path fill="#B3282D" d="M33.426,66.557"/>
		<polygon fill="#B3282D" points="22.338,3.902 22.338,3.902 22.46,3.858 		"/>
		<polygon fill="#B3282D" points="22.338,3.902 22.338,3.902 22.46,3.858 		"/>
		<path fill="#B3282D" d="M22.338,3.902"/>
		<path fill="#B3282D" d="M22.338,3.902"/>
		<polygon fill="#B3282D" points="21.721,53.267 21.721,53.267 21.439,53.241 		"/>
		<polygon fill="#B3282D" points="21.721,53.267 21.721,53.267 21.439,53.241 		"/>
		<path fill="#B3282D" d="M21.052,63.816l-0.121-0.065L21.052,63.816z"/>
		<path fill="#B3282D" d="M21.052,63.816l-0.121-0.065L21.052,63.816z"/>
		<path fill="#B3282D" d="M15.438,47.01l-0.087-0.142L15.438,47.01z"/>
		<path fill="#B3282D" d="M15.438,47.01l-0.087-0.142L15.438,47.01z"/>
		<path fill="#B3282D" d="M10.601,56.5l-0.032-0.024L10.601,56.5z"/>
		<path fill="#B3282D" d="M10.601,56.5l-0.032-0.024L10.601,56.5z"/>
		<path fill="#B3282D" d="M15.438,47.01"/>
		<path fill="#B3282D" d="M15.438,47.01"/>
		<polygon fill="#B3282D" points="11.668,10.708 11.668,10.708 11.513,10.612 		"/>
		<polygon fill="#B3282D" points="11.668,10.708 11.668,10.708 11.513,10.612 		"/>
		<path fill="#B3282D" d="M21.164,15.333l0.176-0.112L21.164,15.333z"/>
		<path fill="#B3282D" d="M21.164,15.333l0.176-0.112L21.164,15.333z"/>
		<path fill="#B3282D" d="M21.164,15.333"/>
		<path fill="#B3282D" d="M21.164,15.333"/>
		<path fill="#B3282D" d="M3.852,45.793l-0.013-0.037L3.852,45.793z"/>
		<path fill="#B3282D" d="M3.852,45.793l-0.013-0.037L3.852,45.793z"/>
		<path fill="#B3282D" d="M11.954,38.8l-0.009-0.077L11.954,38.8z"/>
		<path fill="#B3282D" d="M11.954,38.8l-0.009-0.077L11.954,38.8z"/>
		<path fill="#B3282D" d="M14.921,21.695l0.236-0.035L14.921,21.695z"/>
		<path fill="#B3282D" d="M14.921,21.695l0.236-0.035L14.921,21.695z"/>
		<path fill="#B3282D" d="M12.147,28.783"/>
		<path fill="#B3282D" d="M12.147,28.783"/>
		<polygon fill="#B3282D" points="12.147,28.783 12.147,28.783 11.467,28.858 		"/>
		<polygon fill="#B3282D" points="12.147,28.783 12.147,28.783 11.467,28.858 		"/>
		<path fill="#B3282D" d="M12.147,28.783"/>
		<path fill="#B3282D" d="M12.147,28.783"/>
		<path fill="#B3282D" d="M1.683,33.438c3.399,2.982,5.547-4.733,10.15-3.4l0.043-0.148c-4.452-2.82-6.712,3.644-10.182,3.393
			L1.683,33.438z"/>
		<polygon fill="#B3282D" points="11.832,30.039 11.832,30.039 11.875,29.891 		"/>
		<polygon fill="#B3282D" points="11.832,30.039 11.832,30.039 11.875,29.891 		"/>
		<path fill="#B3282D" d="M11.596,37.768l0.21-0.073c-0.686-2.029-2.01-2.479-3.415-2.438c-0.526,0.015-1.064,0.1-1.584,0.196
			c-0.865,0.161-1.68,0.355-2.306,0.317c-0.792-0.049-1.34-0.312-1.733-0.651c-0.131-0.112-0.245-0.234-0.344-0.358
			c-0.399-0.498-0.575-1.048-0.742-1.324l0.01-0.155c-0.066-0.005-0.133-0.012-0.199-0.02L1.485,33.26
			c0.26,3.099,2.909,4.355,5.517,4.052c2.199-0.253,3.435,0.117,4.159,0.607L11.596,37.768z"/>
		<path fill="#B3282D" d="M4.501,35.77c0.627,0.038,1.441-0.156,2.306-0.317C5.942,35.614,5.128,35.808,4.501,35.77"/>
		<path fill="#B3282D" d="M8.391,35.257c1.404-0.042,2.73,0.41,3.414,2.438C11.121,35.667,9.795,35.215,8.391,35.257"/>
		<path fill="#B3282D" d="M11.806,37.694"/>
		<path fill="#B3282D" d="M11.806,37.694"/>
		<polygon fill="#B3282D" points="11.161,37.92 11.161,37.92 11.596,37.768 		"/>
		<polygon fill="#B3282D" points="11.161,37.92 11.161,37.92 11.596,37.768 		"/>
		<path fill="#B3282D" d="M11.806,37.694"/>
		<path fill="#B3282D" d="M11.806,37.694"/>
	</g>
</g>
<g>
	<polygon fill="#513628" points="170.612,33.041 166.968,33.041 166.968,27.665 165.339,27.665 165.339,40.588 166.968,40.588 
		166.968,34.74 170.612,34.74 170.612,40.588 172.242,40.588 172.242,27.665 170.612,27.665 	"/>
	<path fill="#513628" d="M186.358,27.411c-2.534,0-3.714,2.134-3.714,6.716c0,4.581,1.18,6.714,3.714,6.714
		c2.556,0,3.696-2.071,3.696-6.714C190.054,29.483,188.914,27.411,186.358,27.411z M188.408,34.127c0,3.652-0.594,5.141-2.049,5.141
		s-2.049-1.489-2.049-5.141c0-3.654,0.594-5.144,2.049-5.144S188.408,30.474,188.408,34.127z"/>
	<path fill="#513628" d="M205.711,36.879c0,1.586-0.61,2.391-1.813,2.391c-1.208,0-1.795-0.782-1.795-2.391v-9.214h-1.628v9.123
		c0,2.614,1.216,4.054,3.424,4.054c2.188,0,3.442-1.478,3.442-4.054v-9.123h-1.63V36.879z"/>
	<path fill="#513628" d="M222.276,33.393c-1.082-0.835-2.307-1.781-2.307-2.852c0-0.99,0.577-1.63,1.47-1.63
		c0.977,0,1.541,0.568,1.889,1.897l0.032,0.123l1.489-0.409l-0.027-0.118c-0.44-1.903-1.66-2.995-3.347-2.995
		c-2.036,0-3.134,1.604-3.134,3.113c0,1.672,1.159,2.729,2.673,3.936c1.393,1.13,2.239,1.896,2.239,2.998
		c0,1.078-0.671,1.831-1.632,1.831c-1.398,0-1.867-1.213-2.015-2.229l-0.02-0.14l-1.532,0.41l0.017,0.112
		c0.348,2.225,1.575,3.402,3.549,3.402c1.89,0,3.261-1.446,3.261-3.438C224.88,35.667,223.752,34.604,222.276,33.393z"/>
	<polygon fill="#513628" points="237.846,38.997 237.846,34.524 240.691,34.524 240.691,32.97 237.846,32.97 237.846,29.256 
		241.725,29.256 241.725,27.666 236.218,27.666 236.218,40.588 241.833,40.588 241.833,38.997 	"/>
</g>
</svg>
